<?xml version="1.0" standalone="no"?>
<!DOCTYPE svg PUBLIC "-//W3C//DTD SVG 1.1//EN" "http://www.w3.org/Graphics/SVG/1.1/DTD/svg11.dtd" >
<svg xmlns="http://www.w3.org/2000/svg" xmlns:xlink="http://www.w3.org/1999/xlink" version="1.1">
<metadata>
Created by FontForge 20170910 at Wed Jan  4 16:46:22 2017
 By Jimmy Wärting
Copyright (c) 2014 by Julieta Ulanovsky. All rights reserved, Design Modifications and new weights 2015, Jasper @ Cannot Into Space Fonts
</metadata>
<defs>
<font id="TruenoUltBlk" horiz-adv-x="690" >
  <font-face 
    font-family="Trueno"
    font-weight="900"
    font-stretch="normal"
    units-per-em="1000"
    panose-1="0 0 10 0 0 0 0 0 0 0"
    ascent="800"
    descent="-200"
    x-height="547"
    cap-height="701"
    bbox="-283 -340 1507 981"
    underline-thickness="50"
    underline-position="-100"
    stemh="168"
    stemv="225"
    unicode-range="U+0020-FB02"
  />
<missing-glyph horiz-adv-x="500" 
d="M-5 -10v710h510v-710h-510zM55 112l159 238l-159 238v-476zM89 55h322l-161 241zM89 640l161 -241l161 241h-322zM286 350l159 -238v476z" />
    <glyph glyph-name="fi" unicode="fi" horiz-adv-x="761" 
d="M15 378v150h75v33c0 117 92 192 232 191c39 0 84 -6 113 -16l3 -2l-7 -189l-8 5c-16 11 -37 18 -52 18c-30 1 -47 -14 -47 -40h106v-150h-106v-378h-234v378h-75zM475 698c0 70 49 119 119 119s119 -49 119 -119s-49 -119 -119 -119s-119 49 -119 119zM476 0v547h235
v-547h-235z" />
    <glyph glyph-name="fl" unicode="fl" horiz-adv-x="771" 
d="M15 378v150h75v33c0 117 92 192 232 191c39 0 84 -6 113 -16l3 -2l-7 -189l-8 5c-16 11 -37 18 -52 18c-30 1 -47 -14 -47 -40h106v-150h-106v-378h-234v378h-75zM481 0v742h235v-742h-235z" />
    <glyph glyph-name=".notdef" horiz-adv-x="500" 
d="M-5 -10v710h510v-710h-510zM55 112l159 238l-159 238v-476zM89 55h322l-161 241zM89 640l161 -241l161 241h-322zM286 350l159 -238v476z" />
    <glyph glyph-name="space" unicode=" " horiz-adv-x="209" 
 />
    <glyph glyph-name="exclam" unicode="!" horiz-adv-x="294" 
d="M35 100c0 63 44 107 107 107c64 0 108 -44 108 -107c0 -64 -44 -108 -108 -108c-63 0 -107 44 -107 108zM35 512v189h224v-189l-41 -264h-142z" />
    <glyph glyph-name="quotedbl" unicode="&#x22;" horiz-adv-x="509" 
d="M55 389v312h178v-312h-178zM276 389v312h178v-312h-178z" />
    <glyph glyph-name="numbersign" unicode="#" horiz-adv-x="745" 
d="M-2 133l21 163h130l12 100h-129l20 163h130l18 142h170l-18 -147h95l18 147h170l-18 -145h130l-20 -161h-131l-12 -99h130l-21 -163h-130l-17 -138h-170l17 138h-95l-17 -138h-170l17 138h-130zM319 296h95l12 100h-95z" />
    <glyph glyph-name="dollar" unicode="$" horiz-adv-x="664" 
d="M2 104l90 183l5 -4c71 -59 195 -108 264 -108c34 0 51 10 51 31c0 81 -363 26 -363 275c0 110 73 187 189 217v166h176v-156c93 -9 182 -39 248 -81l3 -2l-88 -185l-4 3c-71 39 -180 81 -239 81c-25 0 -38 -7 -38 -24c0 -78 363 -28 363 -285c0 -140 -111 -211 -245 -226
v-159h-176v171c-87 17 -169 51 -233 100z" />
    <glyph glyph-name="percent" unicode="%" horiz-adv-x="1068" 
d="M20 488c0 131 83 217 210 217s209 -86 209 -217c0 -132 -82 -218 -209 -218s-210 86 -210 218zM171 488c0 -57 24 -89 59 -89s59 32 59 89c0 56 -24 89 -59 89s-59 -33 -59 -89zM176 -10l494 711h222l-494 -711h-222zM629 213c0 131 83 217 210 217s209 -86 209 -217
c0 -132 -82 -218 -209 -218s-210 86 -210 218zM780 213c0 -57 24 -89 59 -89s59 32 59 89c0 56 -24 89 -59 89s-59 -33 -59 -89z" />
    <glyph glyph-name="ampersand" unicode="&#x26;" horiz-adv-x="706" 
d="M48 202c0 90 59 142 126 181c-37 56 -49 99 -49 147c0 113 86 181 221 181c130 0 226 -70 226 -170c0 -99 -78 -151 -156 -191c19 -21 41 -42 66 -67c14 28 24 57 31 90l2 7l150 -106l-1 -4c-14 -40 -32 -77 -54 -109l96 -88l-120 -115l-92 88c-56 -36 -118 -56 -186 -56
c-150 0 -260 87 -260 212zM241 222c0 -41 31 -67 76 -67c18 0 36 3 53 11c-42 42 -73 77 -102 107c-18 -16 -27 -31 -27 -51zM309 528c0 -21 6 -43 20 -69c36 22 58 46 58 78c0 24 -16 40 -39 40c-25 0 -39 -19 -39 -49z" />
    <glyph glyph-name="quotesingle" unicode="'" horiz-adv-x="288" 
d="M55 389v312h178v-312h-178z" />
    <glyph glyph-name="parenleft" unicode="(" horiz-adv-x="370" 
d="M42 309c0 159 47 311 134 431l1 2h213l-5 -8c-73 -118 -122 -268 -122 -425s49 -307 122 -425l5 -8h-213l-1 2c-87 120 -134 272 -134 431z" />
    <glyph glyph-name="parenright" unicode=")" horiz-adv-x="370" 
d="M-20 -124l5 8c73 118 122 268 122 425s-49 307 -122 425l-5 8h213l1 -2c87 -120 134 -272 134 -431s-47 -311 -134 -431l-1 -2h-213z" />
    <glyph glyph-name="asterisk" unicode="*" horiz-adv-x="406" 
d="M13 502l74 41l-74 39l60 98l72 -41l-2 79h120l-2 -79l72 39l60 -96l-75 -39l75 -41l-60 -105l-73 45l3 -83h-120l3 84l-73 -44z" />
    <glyph glyph-name="plus" unicode="+" horiz-adv-x="520" 
d="M25 254v150h160v155h150v-155h160v-150h-160v-160h-150v160h-160z" />
    <glyph glyph-name="comma" unicode="," horiz-adv-x="265" 
d="M11 -120l53 130c-26 19 -38 49 -38 80c0 63 45 107 108 107c56 0 107 -37 107 -106c0 -32 -12 -59 -28 -83l-88 -128h-114z" />
    <glyph glyph-name="hyphen" unicode="-" horiz-adv-x="380" 
d="M45 234v150h290v-150h-290z" />
    <glyph glyph-name="period" unicode="." horiz-adv-x="265" 
d="M25 90c0 63 44 107 107 107c64 0 108 -44 108 -107c0 -64 -44 -108 -108 -108c-63 0 -107 44 -107 108z" />
    <glyph glyph-name="slash" unicode="/" horiz-adv-x="373" 
d="M-57 -114l332 920h199l-332 -920h-199z" />
    <glyph glyph-name="zero" unicode="0" horiz-adv-x="713" 
d="M30 351c0 229 116 357 327 357c209 0 326 -128 326 -357s-117 -358 -326 -358c-211 0 -327 129 -327 358zM278 351c0 -139 21 -180 79 -180c57 0 78 41 78 180s-21 179 -78 179c-58 0 -79 -40 -79 -179z" />
    <glyph glyph-name="one" unicode="1" horiz-adv-x="435" 
d="M-3 508v193h364v-711h-242v518h-122z" />
    <glyph glyph-name="two" unicode="2" horiz-adv-x="610" 
d="M5 598l3 2c101 69 204 111 315 111c145 0 258 -77 258 -194c0 -83 -59 -161 -137 -239l-98 -96h245v-187h-557v151l244 252c28 29 50 63 50 84s-13 32 -41 32c-51 0 -119 -34 -187 -89l-5 -4z" />
    <glyph glyph-name="three" unicode="3" horiz-adv-x="575" 
d="M-13 87l97 186l5 -6c52 -64 109 -96 168 -96c46 0 67 17 67 54s-21 55 -67 55h-132v124l126 117h-226v178h504v-135l-146 -138l21 -5c90 -21 157 -90 157 -196c0 -138 -113 -235 -285 -235c-106 0 -217 37 -286 94z" />
    <glyph glyph-name="four" unicode="4" horiz-adv-x="664" 
d="M20 130v157l207 414h232l-191 -395h82v134h225v-134h89v-176h-89v-135h-225v135h-330z" />
    <glyph glyph-name="five" unicode="5" horiz-adv-x="611" 
d="M-3 86l97 187l5 -6c49 -64 105 -96 165 -96c48 0 70 19 70 56c0 34 -21 51 -70 51h-202v423h499v-188h-277v-63h26c170 0 284 -82 284 -211c0 -151 -120 -249 -302 -249c-100 0 -214 37 -292 94z" />
    <glyph glyph-name="six" unicode="6" horiz-adv-x="648" 
d="M30 343c0 222 137 368 348 368c87 0 183 -24 245 -63l4 -2l-93 -172l-5 4c-37 30 -83 45 -137 45c-84 0 -127 -32 -131 -95c31 26 77 45 140 45c140 0 232 -96 232 -234c0 -152 -113 -249 -280 -249c-201 0 -323 139 -323 353zM281 240c0 -38 20 -56 64 -56
c43 0 63 17 63 56c0 37 -19 55 -62 55c-44 0 -65 -17 -65 -55z" />
    <glyph glyph-name="seven" unicode="7" horiz-adv-x="617" 
d="M24 515v186h589v-161l-243 -550h-256l231 523h-107v-101z" />
    <glyph glyph-name="eight" unicode="8" horiz-adv-x="656" 
d="M20 197c0 74 47 144 119 179c-50 37 -81 92 -81 144c0 117 108 191 269 191c163 0 271 -77 271 -198c0 -52 -28 -105 -70 -138c67 -36 108 -103 108 -174c0 -129 -123 -211 -308 -211s-308 81 -308 207zM249 222c0 -37 24 -56 79 -56s80 19 80 56c0 38 -25 57 -80 57
s-79 -19 -79 -57zM262 501c0 -31 20 -47 66 -47s66 16 66 47c0 33 -20 49 -66 49s-66 -16 -66 -49z" />
    <glyph glyph-name="nine" unicode="9" horiz-adv-x="648" 
d="M15 462c0 152 113 249 280 249c201 0 323 -139 323 -353c0 -222 -137 -368 -348 -368c-87 0 -183 24 -245 63l-4 2l93 172l5 -4c37 -30 83 -45 137 -45c84 0 127 32 131 95c-31 -26 -77 -45 -140 -45c-140 0 -232 96 -232 234zM240 461c0 -37 19 -55 62 -55
c44 0 65 18 65 56s-20 55 -64 55c-43 0 -63 -17 -63 -56z" />
    <glyph glyph-name="colon" unicode=":" horiz-adv-x="265" 
d="M25 100c0 63 44 107 107 107c64 0 108 -44 108 -107c0 -64 -44 -108 -108 -108c-63 0 -107 44 -107 108zM25 392c0 63 44 107 107 107c64 0 108 -44 108 -107c0 -64 -44 -108 -108 -108c-63 0 -107 44 -107 108z" />
    <glyph glyph-name="semicolon" unicode=";" horiz-adv-x="265" 
d="M11 -110l53 130c-26 19 -38 49 -38 80c0 63 45 107 108 107c56 0 107 -37 107 -106c0 -32 -12 -59 -28 -83l-88 -128h-114zM25 392c0 63 44 107 107 107c64 0 108 -44 108 -107c0 -64 -44 -108 -108 -108c-63 0 -107 44 -107 108z" />
    <glyph glyph-name="less" unicode="&#x3c;" horiz-adv-x="520" 
d="M25 231v184l470 185v-162l-307 -115l307 -115v-162z" />
    <glyph glyph-name="equal" unicode="=" horiz-adv-x="520" 
d="M25 144v150h470v-150h-470zM25 364v150h470v-150h-470z" />
    <glyph glyph-name="greater" unicode="&#x3e;" horiz-adv-x="520" 
d="M25 47v166l307 115l-307 115v166l470 -189v-184z" />
    <glyph glyph-name="question" unicode="?" horiz-adv-x="498" 
d="M-4 445v5c0 163 93 261 252 261c147 0 235 -69 235 -187c0 -149 -150 -179 -150 -279v-5h-177v5c0 152 110 171 110 242c0 27 -11 37 -39 37c-33 0 -49 -21 -49 -74v-5h-182zM134 100c0 63 44 107 107 107c64 0 108 -44 108 -107c0 -64 -44 -108 -108 -108
c-63 0 -107 44 -107 108z" />
    <glyph glyph-name="at" unicode="@" horiz-adv-x="865" 
d="M10 268c0 241 191 430 429 430c237 0 416 -180 416 -424c0 -148 -82 -246 -197 -246c-61 0 -106 23 -122 75c-38 -48 -85 -65 -130 -65c-107 0 -212 92 -212 233c0 127 75 237 197 237c55 0 94 -31 110 -46v34h145v-330c0 -33 10 -39 25 -39c29 0 67 56 67 144
c0 178 -107 318 -299 318c-171 0 -311 -144 -311 -321c0 -174 130 -304 299 -304c55 0 126 19 181 62l4 3l57 -94l-4 -3c-59 -48 -159 -77 -238 -77c-237 0 -417 176 -417 413zM352 276c0 -58 27 -107 68 -107c46 0 72 47 72 106c0 56 -27 99 -73 99c-40 0 -67 -44 -67 -98z
" />
    <glyph glyph-name="A" unicode="A" horiz-adv-x="799" 
d="M-18 0l301 701h244l289 -701h-258l-35 99h-255l-36 -99h-250zM331 270h132l-65 185z" />
    <glyph glyph-name="B" unicode="B" horiz-adv-x="724" 
d="M45 0v701h360c170 0 283 -69 283 -179c0 -66 -41 -122 -106 -148c77 -24 127 -92 127 -175c0 -122 -115 -199 -287 -199h-377zM286 180h106c41 0 66 19 66 48c0 26 -24 44 -66 44h-106v-92zM286 436h106c30 0 48 16 48 43c0 26 -18 42 -48 42h-106v-85z" />
    <glyph glyph-name="C" unicode="C" horiz-adv-x="688" 
d="M10 352c0 206 163 356 385 356c108 0 227 -51 300 -130l3 -3l-141 -167l-4 5c-41 56 -103 92 -155 92c-81 0 -140 -62 -140 -150c0 -89 59 -152 140 -152c48 0 110 30 155 78l4 4l141 -150l-3 -3c-79 -86 -199 -142 -309 -142c-218 0 -376 153 -376 362z" />
    <glyph glyph-name="D" unicode="D" horiz-adv-x="759" 
d="M45 0v701h318c233 0 386 -137 386 -350s-156 -351 -395 -351h-309zM287 190h82c81 0 133 61 133 159c0 99 -57 162 -144 162h-71v-321z" />
    <glyph glyph-name="E" unicode="E" 
d="M45 0v701h603v-186h-361v-71h328v-186h-328v-72h370v-186h-612z" />
    <glyph glyph-name="F" unicode="F" horiz-adv-x="631" 
d="M45 0v701h574v-186h-332v-106h311v-186h-311v-223h-242z" />
    <glyph glyph-name="G" unicode="G" horiz-adv-x="738" 
d="M10 350c0 207 169 358 400 358c110 0 230 -42 306 -109l4 -3l-138 -167l-3 3c-46 44 -114 73 -170 73c-87 0 -151 -65 -151 -155c0 -92 65 -157 153 -157c22 0 56 9 87 21v165h209v-297l-2 -1c-79 -53 -209 -91 -310 -91c-222 0 -385 152 -385 360z" />
    <glyph glyph-name="H" unicode="H" horiz-adv-x="781" 
d="M45 0v701h242v-267h207v267h242v-701h-242v248h-207v-248h-242z" />
    <glyph glyph-name="I" unicode="I" horiz-adv-x="332" 
d="M45 0v701h242v-701h-242z" />
    <glyph glyph-name="J" unicode="J" horiz-adv-x="569" 
d="M-14 117l110 158l5 -4c54 -54 109 -78 142 -78c29 0 48 16 48 53v455h243v-462c0 -158 -106 -249 -269 -249c-114 0 -205 45 -277 124z" />
    <glyph glyph-name="K" unicode="K" horiz-adv-x="773" 
d="M45 0v701h242v-235l202 235h280l-255 -283l268 -418h-289l-144 238l-62 -70v-168h-242z" />
    <glyph glyph-name="L" unicode="L" horiz-adv-x="584" 
d="M45 0v701h242v-498h292v-203h-534z" />
    <glyph glyph-name="M" unicode="M" horiz-adv-x="896" 
d="M45 0v701h253l150 -358l150 358h253v-701h-212v362l-112 -294h-158l-112 294v-362h-212z" />
    <glyph glyph-name="N" unicode="N" horiz-adv-x="781" 
d="M45 0v701h201l270 -350v350h220v-701h-201l-269 348v-348h-221z" />
    <glyph glyph-name="O" unicode="O" horiz-adv-x="800" 
d="M10 351c0 208 165 357 390 357s390 -150 390 -357c0 -208 -165 -361 -390 -361s-390 152 -390 361zM258 350c0 -91 68 -157 145 -157s139 66 139 157s-62 155 -139 155c-78 0 -145 -64 -145 -155z" />
    <glyph glyph-name="P" unicode="P" horiz-adv-x="686" 
d="M45 0v701h334c184 0 292 -93 292 -254c0 -171 -108 -270 -292 -270h-92v-177h-242zM287 363h80c47 0 74 27 74 77c0 48 -27 75 -74 75h-80v-152z" />
    <glyph glyph-name="Q" unicode="Q" horiz-adv-x="797" 
d="M10 351c0 208 165 357 390 357s390 -150 390 -357c0 -149 -85 -269 -214 -325c14 -16 31 -26 50 -26c26 0 69 18 109 47l5 3l81 -145l-3 -3c-55 -48 -143 -79 -217 -79c-107 0 -195 66 -233 168c-209 14 -358 161 -358 360zM258 345c0 -94 68 -162 145 -162
s139 68 139 162s-62 160 -139 160c-78 0 -145 -66 -145 -160z" />
    <glyph glyph-name="R" unicode="R" horiz-adv-x="725" 
d="M45 0v701h344c192 0 304 -91 304 -252c0 -100 -38 -176 -109 -221l140 -228h-274l-84 182h-79v-182h-242zM287 358h102c47 0 74 28 74 80c0 50 -27 77 -74 77h-102v-157z" />
    <glyph glyph-name="S" unicode="S" horiz-adv-x="664" 
d="M2 109l90 183l5 -4c71 -59 195 -108 264 -108c34 0 51 10 51 30c0 80 -363 26 -363 272c0 141 122 229 305 229c112 0 228 -33 308 -84l3 -2l-88 -185l-4 3c-71 39 -180 81 -239 81c-25 0 -38 -8 -38 -24c0 -77 363 -27 363 -281c0 -157 -141 -226 -300 -226
c-123 0 -260 41 -354 113z" />
    <glyph glyph-name="T" unicode="T" horiz-adv-x="641" 
d="M0 508v193h641v-193h-200v-508h-242v508h-199z" />
    <glyph glyph-name="U" unicode="U" horiz-adv-x="753" 
d="M35 298v403h242v-401c0 -65 48 -107 103 -107c54 0 96 41 96 107v401h242v-403c0 -186 -134 -308 -339 -308c-206 0 -344 122 -344 308z" />
    <glyph glyph-name="V" unicode="V" horiz-adv-x="764" 
d="M-12 701h259l141 -448l140 448h248l-272 -701h-246z" />
    <glyph glyph-name="W" unicode="W" horiz-adv-x="1121" 
d="M-12 701h259l102 -443l100 442l234 1l102 -443l100 443h248l-232 -701h-247l-93 402l-96 -402h-247z" />
    <glyph glyph-name="X" unicode="X" horiz-adv-x="773" 
d="M-15 0l250 356l-234 345h282l99 -160l99 160h285l-230 -334l251 -367h-290l-115 177l-113 -177h-284z" />
    <glyph glyph-name="Y" unicode="Y" horiz-adv-x="719" 
d="M-18 701h242l138 -264l133 264h242l-254 -482v-219h-242v214z" />
    <glyph glyph-name="Z" unicode="Z" horiz-adv-x="683" 
d="M15 0v149l321 364h-309v188h634v-150l-321 -366h328v-185h-653z" />
    <glyph glyph-name="bracketleft" unicode="[" horiz-adv-x="377" 
d="M45 -124v866h327v-176h-117v-514h117v-176h-327z" />
    <glyph glyph-name="backslash" unicode="\" horiz-adv-x="373" 
d="M-101 806h199l332 -920h-199z" />
    <glyph glyph-name="bracketright" unicode="]" horiz-adv-x="397" 
d="M25 52h117v514h-117v176h327v-866h-327v176z" />
    <glyph glyph-name="asciicircum" unicode="^" horiz-adv-x="608" 
d="M22 138l190 385h184l190 -385h-167l-115 254l-115 -254h-167z" />
    <glyph glyph-name="underscore" unicode="_" horiz-adv-x="599" 
d="M-5 -84h609v-130h-609v130z" />
    <glyph glyph-name="grave" unicode="`" horiz-adv-x="350" 
d="M17 717l202 64l114 -200h-171z" />
    <glyph glyph-name="a" unicode="a" horiz-adv-x="613" 
d="M10 164c0 110 77 168 217 170h120c-3 28 -29 45 -80 45c-40 0 -103 -12 -164 -35l-5 -1l-53 159l4 2c93 34 190 53 272 53c160 0 257 -74 257 -204v-353h-231v50c-35 -39 -84 -60 -149 -60c-118 0 -188 69 -188 174zM231 183c0 -26 15 -40 45 -40c27 0 54 13 71 36v41
h-73c-29 0 -43 -12 -43 -37z" />
    <glyph glyph-name="b" unicode="b" 
d="M55 0v742h235v-242c36 37 81 55 134 55c155 0 256 -113 256 -285c0 -168 -98 -278 -250 -278c-56 0 -104 20 -140 56v-48h-235zM290 276c0 -59 31 -96 76 -96c46 0 77 37 77 96s-31 96 -77 96c-45 0 -76 -37 -76 -96z" />
    <glyph glyph-name="c" unicode="c" horiz-adv-x="561" 
d="M10 271c0 172 117 284 294 284c121 0 218 -59 264 -161l2 -5l-189 -80l-2 5c-13 32 -35 49 -65 49c-40 0 -67 -34 -67 -91c0 -58 27 -92 67 -92c30 0 50 15 62 55l2 6l191 -88l-1 -5c-41 -99 -140 -156 -266 -156c-176 0 -292 110 -292 279z" />
    <glyph glyph-name="d" unicode="d" 
d="M10 277c0 168 98 278 250 278c56 0 104 -20 140 -56v243h235v-742h-235v47c-36 -37 -81 -55 -134 -55c-155 0 -256 113 -256 285zM247 271c0 -59 31 -96 77 -96c45 0 76 37 76 96s-31 96 -76 96c-46 0 -77 -37 -77 -96z" />
    <glyph glyph-name="e" unicode="e" horiz-adv-x="614" 
d="M10 271c0 173 119 284 297 284c8 0 16 -1 24 -1c180 -10 284 -137 272 -328v-4h-354c16 -36 44 -54 84 -54c36 0 75 17 108 48l3 3l124 -122l-3 -3c-59 -65 -145 -102 -252 -102c-189 0 -303 110 -303 279zM243 332h125c1 37 -25 63 -59 63s-57 -25 -66 -63z" />
    <glyph glyph-name="f" unicode="f" horiz-adv-x="426" 
d="M15 368v150h75v43c0 117 92 192 232 191c63 0 134 -15 181 -40l5 -2l-80 -163l-5 3c-16 11 -37 18 -52 18c-30 1 -47 -14 -47 -40v-10h106v-149h-106v-369h-234v368h-75z" />
    <glyph glyph-name="g" unicode="g" horiz-adv-x="654" 
d="M10 294c0 158 94 261 226 261c56 0 102 -19 136 -52v44h234v-500c0 -153 -128 -251 -311 -251c-106 0 -203 33 -261 72l-3 2l75 160l5 -3c47 -29 112 -47 164 -47c65 0 97 24 97 59v40c-34 -33 -79 -51 -132 -51c-132 0 -230 104 -230 266zM230 289c0 -56 29 -91 71 -91
s71 35 71 91c0 57 -29 91 -71 91s-71 -34 -71 -91z" />
    <glyph glyph-name="h" unicode="h" horiz-adv-x="687" 
d="M55 0v742h235v-262c39 50 93 77 161 77c118 0 201 -83 201 -209v-348h-235v281c0 43 -24 68 -60 68c-41 0 -67 -31 -67 -81v-268h-235z" />
    <glyph glyph-name="i" unicode="i" horiz-adv-x="335" 
d="M49 698c0 70 49 119 119 119s119 -49 119 -119s-49 -119 -119 -119s-119 49 -119 119zM50 0v547h235v-547h-235z" />
    <glyph glyph-name="j" unicode="j" horiz-adv-x="348" 
d="M-95 -167l53 164l5 -2c19 -9 36 -14 53 -14c25 -1 39 12 39 40v526h235v-559c0 -118 -88 -192 -222 -191c-61 0 -115 13 -159 35zM44 698c0 70 54 119 128 119c75 0 128 -49 128 -119s-53 -119 -128 -119c-74 0 -128 49 -128 119z" />
    <glyph glyph-name="k" unicode="k" horiz-adv-x="662" 
d="M55 0v742h235v-329l120 134h268l-205 -213l199 -334h-279l-82 168l-21 -21v-147h-235z" />
    <glyph glyph-name="l" unicode="l" horiz-adv-x="345" 
d="M55 0v742h235v-742h-235z" />
    <glyph glyph-name="m" unicode="m" horiz-adv-x="1032" 
d="M50 0v547h235v-67c38 49 91 77 158 77c81 0 145 -41 177 -110c37 70 99 110 179 110c116 0 198 -83 198 -209v-348h-235v281c0 43 -23 68 -57 68c-38 0 -64 -31 -64 -81v-268h-235v281c0 43 -23 68 -57 68c-38 0 -64 -31 -64 -81v-268h-235z" />
    <glyph glyph-name="n" unicode="n" horiz-adv-x="682" 
d="M50 0v547h235v-67c39 50 93 77 161 77c118 0 201 -83 201 -209v-348h-235v281c0 43 -24 68 -60 68c-41 0 -67 -31 -67 -81v-268h-235z" />
    <glyph glyph-name="o" unicode="o" horiz-adv-x="648" 
d="M10 274c0 171 124 281 314 281s314 -110 314 -281s-124 -282 -314 -282s-314 111 -314 282zM247 271c0 -59 31 -96 77 -96s77 37 77 96s-31 96 -77 96s-77 -37 -77 -96z" />
    <glyph glyph-name="p" unicode="p" 
d="M55 -194v741h235v-47c36 37 81 55 134 55c155 0 256 -113 256 -285c0 -168 -98 -278 -250 -278c-56 0 -104 20 -140 56v-242h-235zM290 276c0 -59 31 -96 76 -96c46 0 77 37 77 96s-31 96 -77 96c-45 0 -76 -37 -76 -96z" />
    <glyph glyph-name="q" unicode="q" 
d="M10 277c0 168 98 278 250 278c56 0 104 -20 140 -56v48h235v-741h-235v241c-36 -37 -81 -55 -134 -55c-155 0 -256 113 -256 285zM247 271c0 -59 31 -96 77 -96c45 0 76 37 76 96s-31 96 -76 96c-46 0 -77 -37 -77 -96z" />
    <glyph glyph-name="r" unicode="r" horiz-adv-x="457" 
d="M50 0v547h235v-69c39 51 95 79 162 79h5v-210l-6 1c-15 2 -28 3 -41 3c-75 0 -120 -33 -120 -90v-261h-235z" />
    <glyph glyph-name="s" unicode="s" horiz-adv-x="552" 
d="M6 71l72 149l5 -3c72 -45 139 -67 199 -67c21 0 29 6 29 11c0 37 -278 22 -278 207c0 116 98 189 246 189c88 0 173 -24 256 -70l5 -2l-79 -148l-4 3c-81 40 -142 59 -183 59c-19 0 -26 -7 -26 -13c0 -40 284 -26 284 -210c0 -114 -101 -186 -253 -186
c-102 0 -193 26 -270 79z" />
    <glyph glyph-name="t" unicode="t" horiz-adv-x="460" 
d="M3 369v150h75v151h234v-150h128v-149h-128v-157c0 -26 15 -41 39 -40c12 0 33 6 54 14l6 2l40 -163l-3 -2c-37 -22 -100 -35 -159 -35c-127 -1 -211 73 -211 188v191h-75z" />
    <glyph glyph-name="u" unicode="u" horiz-adv-x="672" 
d="M35 199v348h235v-281c0 -43 22 -68 55 -68c37 0 62 31 62 81v268h235v-547h-235v65c-38 -49 -90 -75 -156 -75c-115 0 -196 83 -196 209z" />
    <glyph glyph-name="v" unicode="v" horiz-adv-x="612" 
d="M-17 547h242l83 -328l85 328h236l-206 -547h-236z" />
    <glyph glyph-name="w" unicode="w" horiz-adv-x="977" 
d="M-17 547h239l83 -311l80 311h216l83 -312l82 312h228l-204 -547h-227l-74 274l-77 -274h-228z" />
    <glyph glyph-name="x" unicode="x" horiz-adv-x="654" 
d="M-14 0l184 280l-173 267h270l60 -122l71 122h258l-173 -266l185 -281h-271l-70 137l-82 -137h-259z" />
    <glyph glyph-name="y" unicode="y" horiz-adv-x="624" 
d="M-27 -136l100 157l4 -4c23 -21 44 -31 70 -31c25 0 40 8 50 25l6 11l-229 525h243l104 -300l85 300h235l-227 -582c-47 -116 -126 -169 -245 -169c-73 0 -132 20 -192 65z" />
    <glyph glyph-name="z" unicode="z" horiz-adv-x="568" 
d="M20 0v134l222 235h-212v178h512v-134l-222 -235h232v-178h-532z" />
    <glyph glyph-name="braceleft" unicode="{" horiz-adv-x="381" 
d="M9 220v178h50c21 0 26 5 26 29v161c0 117 52 156 198 156h93v-173h-5c-66 0 -76 -12 -76 -53v-77c0 -74 -22 -113 -82 -132c61 -20 82 -59 82 -132v-77c0 -41 10 -53 76 -53h5v-173h-93c-146 0 -198 39 -198 156v161c0 24 -5 29 -26 29h-50z" />
    <glyph glyph-name="bar" unicode="|" horiz-adv-x="326" 
d="M75 -113v909h176v-909h-176z" />
    <glyph glyph-name="braceright" unicode="}" horiz-adv-x="381" 
d="M5 47h5c66 0 76 12 76 53v77c0 74 22 113 82 132c-61 20 -82 59 -82 132v77c0 41 -10 53 -76 53h-5v173h93c146 0 198 -39 198 -156v-161c0 -24 5 -29 26 -29h50v-178h-50c-21 0 -26 -5 -26 -29v-161c0 -117 -52 -156 -198 -156h-93v173z" />
    <glyph glyph-name="asciitilde" unicode="~" horiz-adv-x="520" 
d="M42 224v5c0 138 42 206 133 206c71 0 103 -44 124 -44c14 0 21 9 21 36v5h158v-5c0 -138 -41 -206 -132 -206c-71 0 -103 44 -124 44c-14 0 -21 -9 -21 -36v-5h-159z" />
    <glyph glyph-name="nbspace" unicode="&#xa0;" horiz-adv-x="209" 
 />
    <glyph glyph-name="exclamdown" unicode="&#xa1;" horiz-adv-x="294" 
d="M35 34l41 264h142l41 -264v-189h-224v189zM44 446c0 64 44 108 108 108c63 0 107 -44 107 -108c0 -63 -44 -107 -107 -107c-64 0 -108 44 -108 107z" />
    <glyph glyph-name="cent" unicode="&#xa2;" horiz-adv-x="561" 
d="M10 269c0 146 83 249 215 279v166h176v-173c75 -23 134 -74 167 -147l2 -5l-189 -80l-2 5c-13 32 -35 49 -65 49c-40 0 -67 -36 -67 -94c0 -59 27 -94 67 -94c30 0 50 15 62 55l2 6l191 -88l-1 -5c-29 -72 -89 -121 -167 -143v-170h-176v164c-134 28 -215 131 -215 275z
" />
    <glyph glyph-name="sterling" unicode="&#xa3;" horiz-adv-x="566" 
d="M15 -5v183h70v81h-70v162h70v42c0 157 98 248 266 248c86 0 169 -29 228 -83l3 -3l-88 -179l-5 4c-43 39 -81 58 -113 58s-48 -15 -48 -51v-36h159v-162h-159v-81h238v-183h-551z" />
    <glyph glyph-name="currency" unicode="&#xa4;" horiz-adv-x="693" 
d="M8 114l103 102c-16 33 -24 69 -24 107c0 35 8 69 21 99l-100 99l132 130l98 -93c33 16 69 24 108 24c40 0 77 -9 109 -24l98 93l132 -130l-100 -99c13 -31 20 -64 20 -99c0 -38 -9 -74 -24 -106l104 -103l-132 -130l-106 101c-32 -14 -65 -21 -101 -21s-71 8 -101 20
l-105 -100zM272 323c0 -41 33 -74 74 -74s75 33 75 74s-34 75 -75 75s-74 -34 -74 -75z" />
    <glyph glyph-name="yen" unicode="&#xa5;" horiz-adv-x="699" 
d="M-18 701h242l138 -264l133 264h242l-179 -340h82v-90h-129l-19 -36h148v-92h-157v-148h-242v148h-182v92h170l-19 36h-151v91h103z" />
    <glyph glyph-name="brokenbar" unicode="&#xa6;" horiz-adv-x="326" 
d="M75 -108v349h176v-349h-176zM75 447v349h176v-349h-176z" />
    <glyph glyph-name="section" unicode="&#xa7;" horiz-adv-x="586" 
d="M6 -14l65 149l5 -3c74 -45 144 -67 197 -67c29 0 33 6 33 10c0 38 -289 39 -289 218c0 61 33 108 87 139c-36 28 -42 54 -42 87c0 106 94 180 241 180c83 0 170 -24 256 -70l5 -2l-72 -148l-4 2c-83 40 -147 60 -183 60c-23 0 -28 -7 -28 -11c0 -42 295 -43 295 -222
c0 -60 -33 -107 -87 -138c28 -24 42 -44 42 -88c0 -105 -96 -177 -249 -177c-93 0 -190 26 -269 79zM231 308c0 -13 28 -26 73 -26c37 0 48 9 48 15c0 13 -34 27 -78 27c-34 0 -43 -8 -43 -16z" />
    <glyph glyph-name="dieresis" unicode="&#xa8;" horiz-adv-x="350" 
d="M-25 693c0 57 39 97 96 97s96 -40 96 -97c0 -56 -39 -96 -96 -96s-96 40 -96 96zM183 693c0 57 39 97 96 97s96 -40 96 -97c0 -56 -39 -96 -96 -96s-96 40 -96 96z" />
    <glyph glyph-name="copyright" unicode="&#xa9;" horiz-adv-x="707" 
d="M10 348c0 188 150 346 344 346c193 0 343 -155 343 -344c0 -188 -151 -346 -345 -346c-193 0 -342 156 -342 344zM120 348c0 -128 101 -234 232 -234c133 0 235 108 235 236s-102 234 -233 234c-132 0 -234 -108 -234 -236zM185 349c0 96 75 166 176 166
c49 0 104 -24 137 -60l3 -3l-67 -80l-4 5c-18 25 -45 41 -67 41c-35 0 -61 -27 -61 -67c0 -41 26 -68 61 -68c20 0 47 13 67 34l4 4l67 -71l-3 -3c-36 -40 -90 -65 -141 -65c-100 0 -172 70 -172 167z" />
    <glyph glyph-name="ordfeminine" unicode="&#xaa;" horiz-adv-x="400" 
d="M6 558c0 68 51 104 141 105h70c-5 8 -18 13 -44 13c-24 0 -64 -7 -104 -19l-4 -1l-37 106l5 2c61 19 124 30 176 30c104 0 170 -44 169 -124v-212h-159v25c-21 -21 -52 -32 -91 -32c-76 0 -122 43 -122 107zM159 570c0 -11 6 -16 22 -16c14 0 29 6 38 15v17h-40
c-14 0 -20 -5 -20 -16z" />
    <glyph glyph-name="guillemotleft" unicode="&#xab;" horiz-adv-x="544" 
d="M-23 273l127 193h191l-108 -193l108 -195h-191zM236 273l127 193h191l-108 -193l108 -195h-191z" />
    <glyph glyph-name="logicalnot" unicode="&#xac;" horiz-adv-x="593" 
d="M25 304v150h520v-330h-170v180h-350z" />
    <glyph glyph-name="softhyphen" unicode="&#xad;" horiz-adv-x="380" 
d="M45 234v150h290v-150h-290z" />
    <glyph glyph-name="registered" unicode="&#xae;" horiz-adv-x="707" 
d="M10 348c0 188 150 346 344 346c193 0 343 -155 343 -344c0 -188 -151 -346 -345 -346c-193 0 -342 156 -342 344zM120 348c0 -128 101 -234 232 -234c133 0 235 108 235 236s-102 234 -233 234c-132 0 -234 -108 -234 -236zM219 206v311h146c84 0 134 -41 134 -112
c0 -44 -16 -78 -46 -98l62 -101h-125l-36 78h-25v-78h-110zM329 370h36c19 0 29 10 29 31s-10 31 -29 31h-36v-62z" />
    <glyph glyph-name="macron" unicode="&#xaf;" horiz-adv-x="350" 
d="M20 614v158h310v-158h-310z" />
    <glyph glyph-name="degree" unicode="&#xb0;" horiz-adv-x="400" 
d="M81 703c0 67 56 121 126 121s126 -54 126 -121s-56 -121 -126 -121s-126 54 -126 121zM174 703c0 -15 15 -28 33 -28s33 13 33 28s-15 28 -33 28s-33 -13 -33 -28z" />
    <glyph glyph-name="plusminus" unicode="&#xb1;" horiz-adv-x="520" 
d="M25 -16v150h470v-150h-470zM25 340v143h160v147h150v-147h160v-143h-160v-152h-150v152h-160z" />
    <glyph glyph-name="twosuperior" unicode="&#xb2;" horiz-adv-x="394" 
d="M2 640l4 3c66 40 133 64 205 64c93 0 167 -45 167 -115c0 -51 -39 -97 -89 -142l-48 -45h141v-125h-359v100l153 150c15 13 28 29 28 37c0 6 -4 9 -18 9c-30 0 -73 -16 -116 -43l-5 -4z" />
    <glyph glyph-name="threesuperior" unicode="&#xb3;" horiz-adv-x="374" 
d="M-7 335l67 124l5 -6c32 -40 67 -59 103 -59c25 0 34 7 34 25s-9 26 -34 26h-87v85l70 51h-134v118h328v-86l-86 -70l10 -2c54 -13 96 -57 96 -122c0 -86 -73 -146 -184 -146c-69 0 -141 23 -185 59z" />
    <glyph glyph-name="acute" unicode="&#xb4;" horiz-adv-x="350" 
d="M18 581l114 200l202 -64l-145 -136h-171z" />
    <glyph glyph-name="mu" unicode="&#xb5;" horiz-adv-x="692" 
d="M55 -194v741h235v-289c0 -44 22 -70 55 -70c37 0 62 31 62 83v276h235v-547h-235v65c-30 -38 -69 -63 -117 -71v-188h-235z" />
    <glyph glyph-name="paragraph" unicode="&#xb6;" horiz-adv-x="682" 
d="M-15 511c0 117 73 231 264 231h388v-847h-176v713h-62v-713h-176v393h-17c-176 0 -221 137 -221 223z" />
    <glyph glyph-name="periodcentered" unicode="&#xb7;" horiz-adv-x="265" 
d="M25 292c0 63 44 107 107 107c64 0 108 -44 108 -107c0 -64 -44 -108 -108 -108c-63 0 -107 44 -107 108z" />
    <glyph glyph-name="cedilla" unicode="&#xb8;" horiz-adv-x="350" 
d="M48 -210l45 101l5 -6c9 -11 24 -18 37 -18c21 0 33 10 33 26s-14 27 -38 27c-8 0 -23 -1 -36 -4l-10 -2l57 104h134l-38 -69c39 -15 64 -47 64 -82c0 -70 -58 -114 -146 -114c-31 0 -72 13 -104 35z" />
    <glyph glyph-name="onesuperior" unicode="&#xb9;" horiz-adv-x="286" 
d="M-1 572v129h242v-421h-166v292h-76z" />
    <glyph glyph-name="ordmasculine" unicode="&#xba;" horiz-adv-x="419" 
d="M7 623c0 104 80 170 202 170c123 0 203 -66 203 -170c0 -103 -80 -170 -203 -170c-122 0 -202 67 -202 170zM170 621c0 -29 16 -46 39 -46s39 17 39 46c0 30 -16 47 -39 47s-39 -17 -39 -47z" />
    <glyph glyph-name="guillemotright" unicode="&#xbb;" horiz-adv-x="544" 
d="M-10 78l108 193l-108 195h191l127 -195l-127 -193h-191zM249 78l108 193l-108 195h191l127 -195l-127 -193h-191z" />
    <glyph glyph-name="onequarter" unicode="&#xbc;" horiz-adv-x="938" 
d="M-1 572v129h242v-431h-166v302h-76zM73 -10l494 711h222l-494 -711h-222zM520 72v104l128 250h160l-79 -161h154v-76h55v-117h-55v-77h-155v77h-208zM692 189h36v74z" />
    <glyph glyph-name="onehalf" unicode="&#xbd;" horiz-adv-x="960" 
d="M-1 572v129h242v-431h-166v302h-76zM73 -10l494 711h222l-494 -711h-222zM568 362l4 2c66 42 133 68 205 68c93 0 167 -47 167 -120c0 -53 -39 -100 -89 -147l-48 -45h141v-125h-359v100l153 150c15 16 28 35 28 45c0 7 -4 11 -18 11c-30 0 -73 -20 -116 -53l-5 -4z" />
    <glyph glyph-name="threequarters" unicode="&#xbe;" horiz-adv-x="996" 
d="M-7 330l67 124l5 -6c32 -40 67 -59 103 -59c25 0 34 7 34 24s-9 26 -34 26h-87v83l70 59h-134v118h328v-90l-86 -74l10 -2c54 -13 96 -56 96 -121c0 -85 -73 -144 -184 -144c-69 0 -141 23 -185 59zM131 -10l494 711h222l-494 -711h-222zM578 72v104l128 250h160
l-79 -161h154v-76h55v-117h-55v-77h-155v77h-208zM750 189h36v74z" />
    <glyph glyph-name="questiondown" unicode="&#xbf;" horiz-adv-x="498" 
d="M15 18c0 149 150 179 150 279v5h177v-5c0 -152 -110 -171 -110 -242c0 -27 11 -37 39 -37c33 0 49 21 49 74v5h182v-5c0 -163 -93 -261 -252 -261c-147 0 -235 69 -235 187zM149 447c0 64 44 108 108 108c63 0 107 -44 107 -108c0 -63 -44 -107 -107 -107
c-64 0 -108 44 -108 107z" />
    <glyph glyph-name="Agrave" unicode="&#xc0;" horiz-adv-x="799" 
d="M-18 0l301 701h244l289 -701h-258l-35 99h-255l-36 -99h-250zM205 871l202 64l114 -200h-171zM331 270h132l-65 185z" />
    <glyph glyph-name="Aacute" unicode="&#xc1;" horiz-adv-x="799" 
d="M-18 0l301 701h244l289 -701h-258l-35 99h-255l-36 -99h-250zM286 735l114 200l202 -64l-145 -136h-171zM331 270h132l-65 185z" />
    <glyph glyph-name="Acircumflex" unicode="&#xc2;" horiz-adv-x="799" 
d="M-18 0l301 701h244l289 -701h-258l-35 99h-255l-36 -99h-250zM185 751l128 172h174l128 -172h-163l-52 78l-52 -78h-163zM331 270h132l-65 185z" />
    <glyph glyph-name="Atilde" unicode="&#xc3;" horiz-adv-x="799" 
d="M-18 0l301 701h244l289 -701h-258l-35 99h-255l-36 -99h-250zM201 758v5c0 126 39 188 122 188c64 0 94 -40 112 -40c13 0 19 8 19 32v5h145v-5c0 -125 -38 -187 -121 -187c-65 0 -94 40 -113 40c-12 0 -18 -7 -18 -33v-5h-146zM331 270h132l-65 185z" />
    <glyph glyph-name="Adieresis" unicode="&#xc4;" horiz-adv-x="799" 
d="M-18 0l301 701h244l289 -701h-258l-35 99h-255l-36 -99h-250zM200 847c0 57 39 97 96 97s96 -40 96 -97c0 -56 -39 -96 -96 -96s-96 40 -96 96zM331 270h132l-65 185zM408 847c0 57 39 97 96 97s96 -40 96 -97c0 -56 -39 -96 -96 -96s-96 40 -96 96z" />
    <glyph glyph-name="Aring" unicode="&#xc5;" horiz-adv-x="799" 
d="M-18 0l297 695c-10 19 -14 38 -14 61c0 78 61 139 139 139s139 -61 139 -139c0 -22 -6 -41 -14 -59l287 -697h-258l-35 99h-255l-36 -99h-250zM331 270h132l-65 185zM367 756c0 -21 16 -37 37 -37s37 16 37 37s-16 37 -37 37s-37 -16 -37 -37z" />
    <glyph glyph-name="AE" unicode="&#xc6;" horiz-adv-x="1147" 
d="M-19 0l396 701h728v-186h-361v-71h328v-186h-328v-72h370v-186h-612v117h-209l-60 -117h-252zM381 293h121v222h-9z" />
    <glyph glyph-name="Ccedilla" unicode="&#xc7;" horiz-adv-x="688" 
d="M10 352c0 206 163 356 385 356c108 0 227 -51 300 -130l3 -3l-141 -167l-4 5c-41 56 -103 92 -155 92c-81 0 -140 -63 -140 -152c0 -90 59 -154 140 -154c48 0 110 30 155 77l4 4l141 -148l-3 -3c-63 -68 -154 -116 -244 -132l-21 -40c39 -16 64 -49 64 -86
c0 -72 -58 -118 -146 -118c-31 0 -72 13 -104 35l-3 2l45 101l5 -6c9 -11 24 -18 37 -18c21 0 33 11 33 28s-14 29 -38 29c-8 0 -23 -2 -36 -5l-10 -2l40 78c-182 29 -307 171 -307 357z" />
    <glyph glyph-name="Egrave" unicode="&#xc8;" 
d="M45 0v701h603v-186h-361v-71h328v-186h-328v-72h370v-186h-612zM153 871l202 64l114 -200h-171z" />
    <glyph glyph-name="Eacute" unicode="&#xc9;" 
d="M45 0v701h603v-186h-361v-71h328v-186h-328v-72h370v-186h-612zM234 735l114 200l202 -64l-145 -136h-171z" />
    <glyph glyph-name="Ecircumflex" unicode="&#xca;" 
d="M45 0v701h603v-186h-361v-71h328v-186h-328v-72h370v-186h-612zM133 751l128 172h174l128 -172h-163l-52 78l-52 -78h-163z" />
    <glyph glyph-name="Edieresis" unicode="&#xcb;" 
d="M45 0v701h603v-186h-361v-71h328v-186h-328v-72h370v-186h-612zM148 847c0 57 39 97 96 97s96 -40 96 -97c0 -56 -39 -96 -96 -96s-96 40 -96 96zM356 847c0 57 39 97 96 97s96 -40 96 -97c0 -56 -39 -96 -96 -96s-96 40 -96 96z" />
    <glyph glyph-name="Igrave" unicode="&#xcc;" horiz-adv-x="332" 
d="M-29 871l202 64l114 -200h-171zM45 0v701h242v-701h-242z" />
    <glyph glyph-name="Iacute" unicode="&#xcd;" horiz-adv-x="332" 
d="M45 0v701h242v-701h-242zM52 735l114 200l202 -64l-145 -136h-171z" />
    <glyph glyph-name="Icircumflex" unicode="&#xce;" horiz-adv-x="332" 
d="M-49 751l128 172h174l128 -172h-163l-52 78l-52 -78h-163zM45 0v701h242v-701h-242z" />
    <glyph glyph-name="Idieresis" unicode="&#xcf;" horiz-adv-x="332" 
d="M-34 847c0 57 39 97 96 97s96 -40 96 -97c0 -56 -39 -96 -96 -96s-96 40 -96 96zM45 0v701h242v-701h-242zM174 847c0 57 39 97 96 97s96 -40 96 -97c0 -56 -39 -96 -96 -96s-96 40 -96 96z" />
    <glyph glyph-name="Eth" unicode="&#xd0;" horiz-adv-x="802" 
d="M-5 286v129h93v286h318c233 0 386 -137 386 -350s-156 -351 -395 -351h-309v286h-93zM330 190h82c81 0 133 61 133 159c0 99 -57 162 -144 162h-71v-96h123v-129h-123v-96z" />
    <glyph glyph-name="Ntilde" unicode="&#xd1;" horiz-adv-x="781" 
d="M45 0v701h201l270 -350v350h220v-701h-201l-269 348v-348h-221zM192 758v5c0 126 39 188 122 188c64 0 94 -40 112 -40c13 0 19 8 19 32v5h145v-5c0 -125 -38 -187 -121 -187c-65 0 -94 40 -113 40c-12 0 -18 -7 -18 -33v-5h-146z" />
    <glyph glyph-name="Ograve" unicode="&#xd2;" horiz-adv-x="800" 
d="M10 351c0 208 165 357 390 357s390 -150 390 -357c0 -208 -165 -361 -390 -361s-390 152 -390 361zM195 871l202 64l114 -200h-171zM258 350c0 -91 68 -157 145 -157s139 66 139 157s-62 155 -139 155c-78 0 -145 -64 -145 -155z" />
    <glyph glyph-name="Oacute" unicode="&#xd3;" horiz-adv-x="800" 
d="M10 351c0 208 165 357 390 357s390 -150 390 -357c0 -208 -165 -361 -390 -361s-390 152 -390 361zM258 350c0 -91 68 -157 145 -157s139 66 139 157s-62 155 -139 155c-78 0 -145 -64 -145 -155zM276 735l114 200l202 -64l-145 -136h-171z" />
    <glyph glyph-name="Ocircumflex" unicode="&#xd4;" horiz-adv-x="800" 
d="M10 351c0 208 165 357 390 357s390 -150 390 -357c0 -208 -165 -361 -390 -361s-390 152 -390 361zM175 751l128 172h174l128 -172h-163l-52 78l-52 -78h-163zM258 350c0 -91 68 -157 145 -157s139 66 139 157s-62 155 -139 155c-78 0 -145 -64 -145 -155z" />
    <glyph glyph-name="Otilde" unicode="&#xd5;" horiz-adv-x="800" 
d="M10 351c0 208 165 357 390 357s390 -150 390 -357c0 -208 -165 -361 -390 -361s-390 152 -390 361zM191 758v5c0 126 39 188 122 188c64 0 94 -40 112 -40c13 0 19 8 19 32v5h145v-5c0 -125 -38 -187 -121 -187c-65 0 -94 40 -113 40c-12 0 -18 -7 -18 -33v-5h-146z
M258 350c0 -91 68 -157 145 -157s139 66 139 157s-62 155 -139 155c-78 0 -145 -64 -145 -155z" />
    <glyph glyph-name="Odieresis" unicode="&#xd6;" horiz-adv-x="800" 
d="M10 351c0 208 165 357 390 357s390 -150 390 -357c0 -208 -165 -361 -390 -361s-390 152 -390 361zM190 847c0 57 39 97 96 97s96 -40 96 -97c0 -56 -39 -96 -96 -96s-96 40 -96 96zM258 350c0 -91 68 -157 145 -157s139 66 139 157s-62 155 -139 155
c-78 0 -145 -64 -145 -155zM398 847c0 57 39 97 96 97s96 -40 96 -97c0 -56 -39 -96 -96 -96s-96 40 -96 96z" />
    <glyph glyph-name="multiply" unicode="&#xd7;" horiz-adv-x="520" 
d="M41 216l113 113l-113 109l3 3v1l103 103l113 -113l113 113l106 -107l-113 -109l113 -113l-106 -103l-113 110l-113 -110z" />
    <glyph glyph-name="Oslash" unicode="&#xd8;" horiz-adv-x="800" 
d="M10 350c0 208 165 358 390 358c15 0 31 -1 43 -2l35 100h138l-47 -129c135 -56 221 -175 221 -325c0 -208 -165 -362 -390 -362c-28 0 -55 2 -80 6l-37 -100h-137l52 141c-116 61 -188 175 -188 313zM258 350c0 -33 9 -63 23 -87l87 242c-62 -16 -110 -76 -110 -155z
M391 193h12c77 0 139 68 139 162c0 52 -20 95 -49 123z" />
    <glyph glyph-name="Ugrave" unicode="&#xd9;" horiz-adv-x="753" 
d="M35 298v403h242v-401c0 -65 48 -107 103 -107c54 0 96 41 96 107v401h242v-403c0 -186 -134 -308 -339 -308c-206 0 -344 122 -344 308zM182 871l202 64l114 -200h-171z" />
    <glyph glyph-name="Uacute" unicode="&#xda;" horiz-adv-x="753" 
d="M35 298v403h242v-401c0 -65 48 -107 103 -107c54 0 96 41 96 107v401h242v-403c0 -186 -134 -308 -339 -308c-206 0 -344 122 -344 308zM263 735l114 200l202 -64l-145 -136h-171z" />
    <glyph glyph-name="Ucircumflex" unicode="&#xdb;" horiz-adv-x="753" 
d="M35 298v403h242v-401c0 -65 48 -107 103 -107c54 0 96 41 96 107v401h242v-403c0 -186 -134 -308 -339 -308c-206 0 -344 122 -344 308zM162 751l128 172h174l128 -172h-163l-52 78l-52 -78h-163z" />
    <glyph glyph-name="Udieresis" unicode="&#xdc;" horiz-adv-x="753" 
d="M35 298v403h242v-401c0 -65 48 -107 103 -107c54 0 96 41 96 107v401h242v-403c0 -186 -134 -308 -339 -308c-206 0 -344 122 -344 308zM177 847c0 57 39 97 96 97s96 -40 96 -97c0 -56 -39 -96 -96 -96s-96 40 -96 96zM385 847c0 57 39 97 96 97s96 -40 96 -97
c0 -56 -39 -96 -96 -96s-96 40 -96 96z" />
    <glyph glyph-name="Yacute" unicode="&#xdd;" horiz-adv-x="719" 
d="M-18 701h242l138 -264l133 264h242l-254 -482v-219h-242v214zM246 735l114 200l202 -64l-145 -136h-171z" />
    <glyph glyph-name="Thorn" unicode="&#xde;" horiz-adv-x="698" 
d="M45 0v701h242v-81h95c182 0 301 -99 301 -253c0 -164 -119 -270 -301 -270h-95v-97h-242zM287 283h85c38 0 63 29 63 77c0 46 -25 74 -63 74h-85v-151z" />
    <glyph glyph-name="germandbls" unicode="&#xdf;" horiz-adv-x="670" 
d="M35 0v494c0 157 115 258 290 258c172 0 286 -82 286 -210c0 -60 -29 -119 -73 -157c71 -28 117 -93 117 -167c0 -133 -118 -218 -296 -218h-52v168h28c66 0 92 19 92 59c0 37 -26 54 -92 54h-28v163h5c51 0 71 20 71 66c0 47 -16 65 -54 65c-41 0 -59 -19 -59 -66v-509
h-235z" />
    <glyph glyph-name="agrave" unicode="&#xe0;" horiz-adv-x="613" 
d="M10 164c0 110 77 168 217 170h120c-3 28 -29 45 -80 45c-40 0 -103 -12 -164 -35l-5 -1l-53 159l4 2c93 34 190 53 272 53c160 0 257 -74 257 -204v-353h-231v50c-35 -39 -84 -60 -149 -60c-118 0 -188 69 -188 174zM113 717l202 64l114 -200h-171zM231 183
c0 -26 15 -40 45 -40c27 0 54 13 71 36v41h-73c-29 0 -43 -12 -43 -37z" />
    <glyph glyph-name="aacute" unicode="&#xe1;" horiz-adv-x="613" 
d="M10 164c0 110 77 168 217 170h120c-3 28 -29 45 -80 45c-40 0 -103 -12 -164 -35l-5 -1l-53 159l4 2c93 34 190 53 272 53c160 0 257 -74 257 -204v-353h-231v50c-35 -39 -84 -60 -149 -60c-118 0 -188 69 -188 174zM194 581l114 200l202 -64l-145 -136h-171zM231 183
c0 -26 15 -40 45 -40c27 0 54 13 71 36v41h-73c-29 0 -43 -12 -43 -37z" />
    <glyph glyph-name="acircumflex" unicode="&#xe2;" horiz-adv-x="613" 
d="M10 164c0 110 77 168 217 170h120c-3 28 -29 45 -80 45c-40 0 -103 -12 -164 -35l-5 -1l-53 159l4 2c93 34 190 53 272 53c160 0 257 -74 257 -204v-353h-231v50c-35 -39 -84 -60 -149 -60c-118 0 -188 69 -188 174zM93 597l128 172h174l128 -172h-163l-52 78l-52 -78
h-163zM231 183c0 -26 15 -40 45 -40c27 0 54 13 71 36v41h-73c-29 0 -43 -12 -43 -37z" />
    <glyph glyph-name="atilde" unicode="&#xe3;" horiz-adv-x="613" 
d="M10 164c0 110 77 168 217 170h120c-3 28 -29 45 -80 45c-40 0 -103 -12 -164 -35l-5 -1l-53 159l4 2c93 34 190 53 272 53c160 0 257 -74 257 -204v-353h-231v50c-35 -39 -84 -60 -149 -60c-118 0 -188 69 -188 174zM109 604v5c0 126 39 188 122 188c64 0 94 -40 112 -40
c13 0 19 8 19 32v5h145v-5c0 -125 -38 -187 -121 -187c-65 0 -94 40 -113 40c-12 0 -18 -7 -18 -33v-5h-146zM231 183c0 -26 15 -40 45 -40c27 0 54 13 71 36v41h-73c-29 0 -43 -12 -43 -37z" />
    <glyph glyph-name="adieresis" unicode="&#xe4;" horiz-adv-x="613" 
d="M10 164c0 110 77 168 217 170h120c-3 28 -29 45 -80 45c-40 0 -103 -12 -164 -35l-5 -1l-53 159l4 2c93 34 190 53 272 53c160 0 257 -74 257 -204v-353h-231v50c-35 -39 -84 -60 -149 -60c-118 0 -188 69 -188 174zM108 693c0 57 39 97 96 97s96 -40 96 -97
c0 -56 -39 -96 -96 -96s-96 40 -96 96zM231 183c0 -26 15 -40 45 -40c27 0 54 13 71 36v41h-73c-29 0 -43 -12 -43 -37zM316 693c0 57 39 97 96 97s96 -40 96 -97c0 -56 -39 -96 -96 -96s-96 40 -96 96z" />
    <glyph glyph-name="aring" unicode="&#xe5;" horiz-adv-x="613" 
d="M10 164c0 110 77 168 217 170h120c-3 28 -29 45 -80 45c-40 0 -103 -12 -164 -35l-5 -1l-53 159l4 2c93 34 190 53 272 53c160 0 257 -74 257 -204v-353h-231v50c-35 -39 -84 -60 -149 -60c-118 0 -188 69 -188 174zM179 698c0 72 57 129 129 129s129 -57 129 -129
s-57 -129 -129 -129s-129 57 -129 129zM231 183c0 -26 15 -40 45 -40c27 0 54 13 71 36v41h-73c-29 0 -43 -12 -43 -37zM274 698c0 -19 15 -34 34 -34s34 15 34 34s-15 34 -34 34s-34 -15 -34 -34z" />
    <glyph glyph-name="ae" unicode="&#xe6;" horiz-adv-x="958" 
d="M10 164c0 110 78 168 218 170h122c-3 28 -30 45 -81 45c-41 0 -105 -12 -166 -35l-5 -1l-53 159l4 2c94 34 191 53 273 53c72 0 132 -15 175 -44c42 28 93 42 153 42c8 0 16 -1 24 -1c180 -10 285 -137 273 -328v-4h-355c16 -36 44 -54 84 -54c38 0 76 17 109 48l3 3
l124 -122l-3 -3c-59 -65 -145 -102 -253 -102c-100 0 -175 36 -220 97c-43 -64 -116 -100 -216 -100c-131 0 -210 69 -210 175zM231 183c0 -26 16 -40 46 -40c27 0 55 13 73 36v41h-75c-29 0 -44 -13 -44 -37zM586 327h126c1 40 -25 68 -60 68c-34 0 -57 -27 -66 -68z" />
    <glyph glyph-name="ccedilla" unicode="&#xe7;" horiz-adv-x="561" 
d="M10 271c0 172 117 284 294 284c121 0 218 -59 264 -161l2 -5l-189 -80l-2 5c-13 32 -35 49 -65 49c-40 0 -67 -35 -67 -93c0 -59 27 -95 67 -95c30 0 50 15 62 54l2 5l191 -86l-1 -4c-33 -77 -103 -128 -194 -145l-22 -42c39 -16 64 -49 64 -86c0 -72 -58 -118 -146 -118
c-31 0 -72 13 -104 35l-3 2l45 101l5 -6c9 -11 24 -18 37 -18c21 0 33 11 33 28s-14 29 -38 29c-8 0 -23 -2 -36 -5l-10 -2l41 80c-142 24 -230 126 -230 274z" />
    <glyph glyph-name="egrave" unicode="&#xe8;" horiz-adv-x="614" 
d="M10 271c0 173 119 284 297 284c8 0 16 -1 24 -1c180 -10 284 -137 272 -328v-4h-354c16 -36 44 -54 84 -54c36 0 75 17 108 48l3 3l124 -122l-3 -3c-59 -65 -145 -102 -252 -102c-189 0 -303 110 -303 279zM108 717l202 64l114 -200h-171zM243 332h125
c1 37 -25 63 -59 63s-57 -25 -66 -63z" />
    <glyph glyph-name="eacute" unicode="&#xe9;" horiz-adv-x="614" 
d="M10 271c0 173 119 284 297 284c8 0 16 -1 24 -1c180 -10 284 -137 272 -328v-4h-354c16 -36 44 -54 84 -54c36 0 75 17 108 48l3 3l124 -122l-3 -3c-59 -65 -145 -102 -252 -102c-189 0 -303 110 -303 279zM189 581l114 200l202 -64l-145 -136h-171zM243 332h125
c1 37 -25 63 -59 63s-57 -25 -66 -63z" />
    <glyph glyph-name="ecircumflex" unicode="&#xea;" horiz-adv-x="614" 
d="M10 271c0 173 119 284 297 284c8 0 16 -1 24 -1c180 -10 284 -137 272 -328v-4h-354c16 -36 44 -54 84 -54c36 0 75 17 108 48l3 3l124 -122l-3 -3c-59 -65 -145 -102 -252 -102c-189 0 -303 110 -303 279zM88 597l128 172h174l128 -172h-163l-52 78l-52 -78h-163z
M243 332h125c1 37 -25 63 -59 63s-57 -25 -66 -63z" />
    <glyph glyph-name="edieresis" unicode="&#xeb;" horiz-adv-x="614" 
d="M10 271c0 173 119 284 297 284c8 0 16 -1 24 -1c180 -10 284 -137 272 -328v-4h-354c16 -36 44 -54 84 -54c36 0 75 17 108 48l3 3l124 -122l-3 -3c-59 -65 -145 -102 -252 -102c-189 0 -303 110 -303 279zM103 693c0 57 39 97 96 97s96 -40 96 -97
c0 -56 -39 -96 -96 -96s-96 40 -96 96zM243 332h125c1 37 -25 63 -59 63s-57 -25 -66 -63zM311 693c0 57 39 97 96 97s96 -40 96 -97c0 -56 -39 -96 -96 -96s-96 40 -96 96z" />
    <glyph glyph-name="igrave" unicode="&#xec;" horiz-adv-x="335" 
d="M-27 717l202 64l114 -200h-171zM50 0v547h235v-547h-235z" />
    <glyph glyph-name="iacute" unicode="&#xed;" horiz-adv-x="335" 
d="M50 0v547h235v-547h-235zM54 581l114 200l202 -64l-145 -136h-171z" />
    <glyph glyph-name="icircumflex" unicode="&#xee;" horiz-adv-x="335" 
d="M-47 597l128 172h174l128 -172h-163l-52 78l-52 -78h-163zM50 0v547h235v-547h-235z" />
    <glyph glyph-name="idieresis" unicode="&#xef;" horiz-adv-x="335" 
d="M-32 693c0 57 39 97 96 97s96 -40 96 -97c0 -56 -39 -96 -96 -96s-96 40 -96 96zM50 0v547h235v-547h-235zM176 693c0 57 39 97 96 97s96 -40 96 -97c0 -56 -39 -96 -96 -96s-96 40 -96 96z" />
    <glyph glyph-name="eth" unicode="&#xf0;" horiz-adv-x="617" 
d="M4 229c0 135 92 224 232 224c50 0 100 -12 134 -31c-14 29 -36 59 -64 86l-177 -58l-37 104l108 37c-37 24 -76 44 -118 62l-9 4l161 95h3c65 -22 123 -52 172 -88l152 52l37 -110l-93 -32c66 -79 102 -172 102 -271c0 -189 -127 -313 -323 -313c-169 0 -280 93 -280 239
zM229 240c0 -35 24 -56 63 -56c40 0 64 22 64 56s-24 55 -65 55c-39 0 -62 -21 -62 -55z" />
    <glyph glyph-name="ntilde" unicode="&#xf1;" horiz-adv-x="682" 
d="M50 0v547h235v-67c39 50 93 77 161 77c118 0 201 -83 201 -209v-348h-235v281c0 43 -24 68 -60 68c-41 0 -67 -31 -67 -81v-268h-235zM161 604v5c0 126 39 188 122 188c64 0 94 -40 112 -40c13 0 19 8 19 32v5h145v-5c0 -125 -38 -187 -121 -187c-65 0 -94 40 -113 40
c-12 0 -18 -7 -18 -33v-5h-146z" />
    <glyph glyph-name="ograve" unicode="&#xf2;" horiz-adv-x="648" 
d="M10 274c0 171 124 281 314 281s314 -110 314 -281s-124 -282 -314 -282s-314 111 -314 282zM129 717l202 64l114 -200h-171zM247 271c0 -59 31 -96 77 -96s77 37 77 96s-31 96 -77 96s-77 -37 -77 -96z" />
    <glyph glyph-name="oacute" unicode="&#xf3;" horiz-adv-x="648" 
d="M10 274c0 171 124 281 314 281s314 -110 314 -281s-124 -282 -314 -282s-314 111 -314 282zM210 581l114 200l202 -64l-145 -136h-171zM247 271c0 -59 31 -96 77 -96s77 37 77 96s-31 96 -77 96s-77 -37 -77 -96z" />
    <glyph glyph-name="ocircumflex" unicode="&#xf4;" horiz-adv-x="648" 
d="M10 274c0 171 124 281 314 281s314 -110 314 -281s-124 -282 -314 -282s-314 111 -314 282zM109 597l128 172h174l128 -172h-163l-52 78l-52 -78h-163zM247 271c0 -59 31 -96 77 -96s77 37 77 96s-31 96 -77 96s-77 -37 -77 -96z" />
    <glyph glyph-name="otilde" unicode="&#xf5;" horiz-adv-x="648" 
d="M10 274c0 171 124 281 314 281s314 -110 314 -281s-124 -282 -314 -282s-314 111 -314 282zM125 604v5c0 126 39 188 122 188c64 0 94 -40 112 -40c13 0 19 8 19 32v5h145v-5c0 -125 -38 -187 -121 -187c-65 0 -94 40 -113 40c-12 0 -18 -7 -18 -33v-5h-146zM247 271
c0 -59 31 -96 77 -96s77 37 77 96s-31 96 -77 96s-77 -37 -77 -96z" />
    <glyph glyph-name="odieresis" unicode="&#xf6;" horiz-adv-x="648" 
d="M10 274c0 171 124 281 314 281s314 -110 314 -281s-124 -282 -314 -282s-314 111 -314 282zM124 693c0 57 39 97 96 97s96 -40 96 -97c0 -56 -39 -96 -96 -96s-96 40 -96 96zM247 271c0 -59 31 -96 77 -96s77 37 77 96s-31 96 -77 96s-77 -37 -77 -96zM332 693
c0 57 39 97 96 97s96 -40 96 -97c0 -56 -39 -96 -96 -96s-96 40 -96 96z" />
    <glyph glyph-name="divide" unicode="&#xf7;" horiz-adv-x="520" 
d="M25 254v150h470v-150h-470zM155 148c0 57 39 97 96 97s96 -40 96 -97c0 -56 -39 -96 -96 -96s-96 40 -96 96zM155 503c0 57 39 97 96 97s96 -40 96 -97c0 -56 -39 -96 -96 -96s-96 40 -96 96z" />
    <glyph glyph-name="oslash" unicode="&#xf8;" horiz-adv-x="648" 
d="M10 273c0 171 124 282 314 282c16 0 32 -1 45 -3l40 125h99l-48 -143c112 -41 178 -134 178 -259c0 -171 -124 -283 -314 -283c-15 0 -30 1 -42 2l-44 -133h-99l51 151c-113 42 -180 135 -180 261zM232 271c0 -30 8 -58 18 -76l64 195c-50 -6 -82 -49 -82 -119zM334 152
c50 6 82 49 82 119c0 31 -8 57 -18 76z" />
    <glyph glyph-name="ugrave" unicode="&#xf9;" horiz-adv-x="672" 
d="M35 199v348h235v-281c0 -43 22 -68 55 -68c37 0 62 31 62 81v268h235v-547h-235v65c-38 -49 -90 -75 -156 -75c-115 0 -196 83 -196 209zM135 717l202 64l114 -200h-171z" />
    <glyph glyph-name="uacute" unicode="&#xfa;" horiz-adv-x="672" 
d="M35 199v348h235v-281c0 -43 22 -68 55 -68c37 0 62 31 62 81v268h235v-547h-235v65c-38 -49 -90 -75 -156 -75c-115 0 -196 83 -196 209zM216 581l114 200l202 -64l-145 -136h-171z" />
    <glyph glyph-name="ucircumflex" unicode="&#xfb;" horiz-adv-x="672" 
d="M35 199v348h235v-281c0 -43 22 -68 55 -68c37 0 62 31 62 81v268h235v-547h-235v65c-38 -49 -90 -75 -156 -75c-115 0 -196 83 -196 209zM115 597l128 172h174l128 -172h-163l-52 78l-52 -78h-163z" />
    <glyph glyph-name="udieresis" unicode="&#xfc;" horiz-adv-x="672" 
d="M35 199v348h235v-281c0 -43 22 -68 55 -68c37 0 62 31 62 81v268h235v-547h-235v65c-38 -49 -90 -75 -156 -75c-115 0 -196 83 -196 209zM130 693c0 57 39 97 96 97s96 -40 96 -97c0 -56 -39 -96 -96 -96s-96 40 -96 96zM338 693c0 57 39 97 96 97s96 -40 96 -97
c0 -56 -39 -96 -96 -96s-96 40 -96 96z" />
    <glyph glyph-name="yacute" unicode="&#xfd;" horiz-adv-x="624" 
d="M-27 -136l100 157l4 -4c23 -21 44 -31 70 -31c25 0 40 8 50 25l6 11l-229 525h243l104 -300l85 300h235l-227 -582c-47 -116 -126 -169 -245 -169c-73 0 -132 20 -192 65zM198 581l114 200l202 -64l-145 -136h-171z" />
    <glyph glyph-name="thorn" unicode="&#xfe;" 
d="M55 -194v936h235v-242c36 37 81 55 134 55c155 0 256 -113 256 -285c0 -168 -98 -278 -250 -278c-56 0 -104 20 -140 56v-242h-235zM290 276c0 -59 31 -96 76 -96c46 0 77 37 77 96s-31 96 -77 96c-45 0 -76 -37 -76 -96z" />
    <glyph glyph-name="ydieresis" unicode="&#xff;" horiz-adv-x="624" 
d="M-27 -136l100 157l4 -4c23 -21 44 -31 70 -31c25 0 40 8 50 25l6 11l-229 525h243l104 -300l85 300h235l-227 -582c-47 -116 -126 -169 -245 -169c-73 0 -132 20 -192 65zM112 693c0 57 39 97 96 97s96 -40 96 -97c0 -56 -39 -96 -96 -96s-96 40 -96 96zM320 693
c0 57 39 97 96 97s96 -40 96 -97c0 -56 -39 -96 -96 -96s-96 40 -96 96z" />
    <glyph glyph-name="Amacron" unicode="&#x100;" horiz-adv-x="799" 
d="M-18 0l301 701h244l289 -701h-258l-35 99h-255l-36 -99h-250zM245 768v158h310v-158h-310zM331 270h132l-65 185z" />
    <glyph glyph-name="amacron" unicode="&#x101;" horiz-adv-x="613" 
d="M10 164c0 110 77 168 217 170h120c-3 28 -29 45 -80 45c-40 0 -103 -12 -164 -35l-5 -1l-53 159l4 2c93 34 190 53 272 53c160 0 257 -74 257 -204v-353h-231v50c-35 -39 -84 -60 -149 -60c-118 0 -188 69 -188 174zM153 614v158h310v-158h-310zM231 183
c0 -26 15 -40 45 -40c27 0 54 13 71 36v41h-73c-29 0 -43 -12 -43 -37z" />
    <glyph glyph-name="Abreve" unicode="&#x102;" horiz-adv-x="799" 
d="M-18 0l301 701h244l289 -701h-258l-35 99h-255l-36 -99h-250zM211 918v5h145v-5c3 -28 20 -45 44 -45s41 17 44 45v5h145v-5c-5 -109 -80 -179 -189 -179s-184 70 -189 179zM331 270h132l-65 185z" />
    <glyph glyph-name="abreve" unicode="&#x103;" horiz-adv-x="613" 
d="M10 164c0 110 77 168 217 170h120c-3 28 -29 45 -80 45c-40 0 -103 -12 -164 -35l-5 -1l-53 159l4 2c93 34 190 53 272 53c160 0 257 -74 257 -204v-353h-231v50c-35 -39 -84 -60 -149 -60c-118 0 -188 69 -188 174zM119 764v5h145v-5c3 -28 20 -45 44 -45s41 17 44 45v5
h145v-5c-5 -109 -80 -179 -189 -179s-184 70 -189 179zM231 183c0 -26 15 -40 45 -40c27 0 54 13 71 36v41h-73c-29 0 -43 -12 -43 -37z" />
    <glyph glyph-name="Aogonek" unicode="&#x104;" horiz-adv-x="799" 
d="M-18 0l301 701h244l289 -701h-72c-22 -34 -36 -61 -36 -74c0 -7 4 -10 9 -10c10 0 22 9 33 28l3 6l62 -72l-2 -3c-29 -52 -73 -79 -124 -79c-43 0 -101 20 -101 93c0 40 17 77 39 111h-69l-35 99h-255l-36 -99h-250zM331 270h132l-65 185z" />
    <glyph glyph-name="aogonek" unicode="&#x105;" horiz-adv-x="618" 
d="M10 164c0 110 78 168 219 170h123c-4 28 -30 45 -82 45c-41 0 -105 -12 -167 -35l-5 -1l-53 159l4 2c94 34 192 53 274 53c162 0 260 -74 260 -204v-353h-49c-22 -34 -36 -61 -36 -74c0 -7 4 -10 9 -10c10 0 22 9 33 28l3 6l62 -72l-2 -3c-29 -52 -73 -79 -124 -79
c-43 0 -101 20 -101 93c0 40 17 77 39 111h-65v51c-34 -40 -86 -62 -152 -62c-119 0 -190 70 -190 175zM231 183c0 -26 16 -40 47 -40c28 0 56 13 74 36v41h-76c-30 0 -45 -13 -45 -37z" />
    <glyph glyph-name="Cacute" unicode="&#x106;" horiz-adv-x="688" 
d="M10 352c0 206 163 356 385 356c108 0 227 -51 300 -130l3 -3l-141 -167l-4 5c-41 56 -103 92 -155 92c-81 0 -140 -62 -140 -150c0 -89 59 -152 140 -152c48 0 110 30 155 78l4 4l141 -150l-3 -3c-79 -86 -199 -142 -309 -142c-218 0 -376 153 -376 362zM280 735l114 200
l202 -64l-145 -136h-171z" />
    <glyph glyph-name="cacute" unicode="&#x107;" horiz-adv-x="561" 
d="M10 271c0 172 117 284 294 284c121 0 218 -59 264 -161l2 -5l-189 -80l-2 5c-13 32 -35 49 -65 49c-40 0 -67 -34 -67 -91c0 -58 27 -92 67 -92c30 0 50 15 62 55l2 6l191 -88l-1 -5c-41 -99 -140 -156 -266 -156c-176 0 -292 110 -292 279zM184 581l114 200l202 -64
l-145 -136h-171z" />
    <glyph glyph-name="Ccaron" unicode="&#x10c;" horiz-adv-x="688" 
d="M10 352c0 206 163 356 385 356c108 0 227 -51 300 -130l3 -3l-141 -167l-4 5c-41 56 -103 92 -155 92c-81 0 -140 -62 -140 -150c0 -89 59 -152 140 -152c48 0 110 30 155 78l4 4l141 -150l-3 -3c-79 -86 -199 -142 -309 -142c-218 0 -376 153 -376 362zM153 923h178
l57 -86l57 86h178l-140 -188h-190z" />
    <glyph glyph-name="ccaron" unicode="&#x10d;" horiz-adv-x="561" 
d="M10 271c0 172 117 284 294 284c121 0 218 -59 264 -161l2 -5l-189 -80l-2 5c-13 32 -35 49 -65 49c-40 0 -67 -34 -67 -91c0 -58 27 -92 67 -92c30 0 50 15 62 55l2 6l191 -88l-1 -5c-41 -99 -140 -156 -266 -156c-176 0 -292 110 -292 279zM57 769h178l57 -86l57 86h178
l-140 -188h-190z" />
    <glyph glyph-name="Dcaron" unicode="&#x10e;" horiz-adv-x="759" 
d="M45 0v701h318c233 0 386 -137 386 -350s-156 -351 -395 -351h-309zM111 923h178l57 -86l57 86h178l-140 -188h-190zM287 190h82c81 0 133 61 133 159c0 99 -57 162 -144 162h-71v-321z" />
    <glyph glyph-name="dcaron" unicode="&#x10f;" horiz-adv-x="847" 
d="M10 277c0 168 98 278 250 278c56 0 104 -20 140 -56v243h235v-742h-235v47c-36 -37 -81 -55 -134 -55c-155 0 -256 113 -256 285zM247 271c0 -59 31 -96 77 -96c45 0 76 37 76 96s-31 96 -76 96c-46 0 -77 -37 -77 -96zM650 352l53 130c-26 19 -38 49 -38 80
c0 63 45 107 108 107c56 0 107 -37 107 -106c0 -32 -12 -59 -28 -83l-88 -128h-114z" />
    <glyph glyph-name="Dcroat" unicode="&#x110;" horiz-adv-x="759" 
d="M45 0v701h318c233 0 386 -137 386 -350s-156 -351 -395 -351h-309zM197 768v158h310v-158h-310zM287 190h82c81 0 133 61 133 159c0 99 -57 162 -144 162h-71v-321z" />
    <glyph glyph-name="dcroat" unicode="&#x111;" horiz-adv-x="692" 
d="M10 277c0 168 98 278 250 278c56 0 104 -20 140 -56v65h-73v123h73v55h235v-55h62v-123h-62v-564h-235v47c-36 -37 -81 -55 -134 -55c-155 0 -256 113 -256 285zM247 271c0 -59 31 -96 77 -96c45 0 76 37 76 96s-31 96 -76 96c-46 0 -77 -37 -77 -96z" />
    <glyph glyph-name="Emacron" unicode="&#x112;" 
d="M45 0v701h603v-186h-361v-71h328v-186h-328v-72h370v-186h-612zM193 768v158h310v-158h-310z" />
    <glyph glyph-name="emacron" unicode="&#x113;" horiz-adv-x="614" 
d="M10 271c0 173 119 284 297 284c8 0 16 -1 24 -1c180 -10 284 -137 272 -328v-4h-354c16 -36 44 -54 84 -54c36 0 75 17 108 48l3 3l124 -122l-3 -3c-59 -65 -145 -102 -252 -102c-189 0 -303 110 -303 279zM148 614v158h310v-158h-310zM243 332h125c1 37 -25 63 -59 63
s-57 -25 -66 -63z" />
    <glyph glyph-name="Edotaccent" unicode="&#x116;" 
d="M45 0v701h603v-186h-361v-71h328v-186h-328v-72h370v-186h-612zM229 852c0 70 49 119 119 119s119 -49 119 -119s-49 -119 -119 -119s-119 49 -119 119z" />
    <glyph glyph-name="edotaccent" unicode="&#x117;" horiz-adv-x="614" 
d="M10 271c0 173 119 284 297 284c8 0 16 -1 24 -1c180 -10 284 -137 272 -328v-4h-354c16 -36 44 -54 84 -54c36 0 75 17 108 48l3 3l124 -122l-3 -3c-59 -65 -145 -102 -252 -102c-189 0 -303 110 -303 279zM184 698c0 70 49 119 119 119s119 -49 119 -119
s-49 -119 -119 -119s-119 49 -119 119zM243 332h125c1 37 -25 63 -59 63s-57 -25 -66 -63z" />
    <glyph glyph-name="Eogonek" unicode="&#x118;" 
d="M45 0v701h603v-186h-361v-71h328v-186h-328v-72h370v-186h-78c-22 -34 -36 -61 -36 -74c0 -7 4 -10 9 -10c10 0 22 9 33 28l3 6l62 -72l-2 -3c-29 -52 -73 -79 -124 -79c-43 0 -101 20 -101 93c0 40 17 77 39 111h-417z" />
    <glyph glyph-name="eogonek" unicode="&#x119;" horiz-adv-x="614" 
d="M10 271c0 173 119 284 297 284c8 0 16 -1 24 -1c180 -10 284 -137 272 -328v-4h-354c17 -36 45 -54 84 -54c36 0 75 17 108 48l3 3l124 -122l-3 -3c-34 -37 -113 -125 -113 -168c0 -7 4 -10 9 -10c10 0 21 9 32 28l3 6l62 -72l-2 -3c-29 -52 -72 -79 -123 -79
c-43 0 -101 20 -101 93c0 39 17 78 40 112c-20 -6 -39 -9 -59 -9c-189 0 -303 110 -303 279zM243 327h125c1 40 -25 68 -59 68c-33 0 -56 -27 -66 -68z" />
    <glyph glyph-name="Ecaron" unicode="&#x11a;" 
d="M45 0v701h603v-186h-361v-71h328v-186h-328v-72h370v-186h-612zM107 923h178l57 -86l57 86h178l-140 -188h-190z" />
    <glyph glyph-name="ecaron" unicode="&#x11b;" horiz-adv-x="614" 
d="M10 271c0 173 119 284 297 284c8 0 16 -1 24 -1c180 -10 284 -137 272 -328v-4h-354c16 -36 44 -54 84 -54c36 0 75 17 108 48l3 3l124 -122l-3 -3c-59 -65 -145 -102 -252 -102c-189 0 -303 110 -303 279zM62 769h178l57 -86l57 86h178l-140 -188h-190zM243 332h125
c1 37 -25 63 -59 63s-57 -25 -66 -63z" />
    <glyph glyph-name="Gbreve" unicode="&#x11e;" horiz-adv-x="738" 
d="M10 350c0 207 169 358 400 358c110 0 230 -42 306 -109l4 -3l-138 -167l-3 3c-46 44 -114 73 -170 73c-87 0 -151 -65 -151 -155c0 -92 65 -157 153 -157c22 0 56 9 87 21v165h209v-297l-2 -1c-79 -53 -209 -91 -310 -91c-222 0 -385 152 -385 360zM207 918v5h145v-5
c3 -28 20 -45 44 -45s41 17 44 45v5h145v-5c-5 -109 -80 -179 -189 -179s-184 70 -189 179z" />
    <glyph glyph-name="gbreve" unicode="&#x11f;" horiz-adv-x="654" 
d="M10 294c0 158 94 261 226 261c56 0 102 -19 136 -52v44h234v-500c0 -153 -128 -251 -311 -251c-106 0 -203 33 -261 72l-3 2l75 160l5 -3c47 -29 112 -47 164 -47c65 0 97 24 97 59v40c-34 -33 -79 -51 -132 -51c-132 0 -230 104 -230 266zM138 764v5h145v-5
c3 -28 20 -45 44 -45s41 17 44 45v5h145v-5c-5 -109 -80 -179 -189 -179s-184 70 -189 179zM230 289c0 -56 29 -91 71 -91s71 35 71 91c0 57 -29 91 -71 91s-71 -34 -71 -91z" />
    <glyph glyph-name="Gcommaaccent" unicode="&#x122;" horiz-adv-x="738" 
d="M10 350c0 207 169 358 400 358c110 0 230 -42 306 -109l4 -3l-138 -167l-3 3c-46 44 -114 73 -170 73c-87 0 -151 -65 -151 -155c0 -92 65 -157 153 -157c22 0 56 9 87 21v165h209v-297l-2 -1c-79 -53 -209 -91 -310 -91c-222 0 -385 152 -385 360zM280 -340l53 130
c-26 19 -38 49 -38 80c0 63 45 107 108 107c56 0 107 -37 107 -106c0 -32 -12 -59 -28 -83l-88 -128h-114z" />
    <glyph glyph-name="gcommaaccent" unicode="&#x123;" horiz-adv-x="654" 
d="M10 294c0 158 94 261 226 261c56 0 102 -19 136 -52v44h234v-500c0 -153 -128 -251 -311 -251c-106 0 -203 33 -261 72l-3 2l75 160l5 -3c47 -29 112 -47 164 -47c65 0 97 24 97 59v40c-34 -33 -79 -51 -132 -51c-132 0 -230 104 -230 266zM213 676c0 32 12 59 28 83
l88 128h114l-53 -130c26 -19 38 -49 38 -80c0 -63 -45 -107 -108 -107c-56 0 -107 37 -107 106zM230 289c0 -56 29 -91 71 -91s71 35 71 91c0 57 -29 91 -71 91s-71 -34 -71 -91z" />
    <glyph glyph-name="hbar" unicode="&#x127;" horiz-adv-x="677" 
d="M-21 553v129h76v60h235v-60h97v-129h-97v-73c39 50 93 77 161 77c118 0 201 -83 201 -209v-348h-235v281c0 43 -24 68 -60 68c-41 0 -67 -31 -67 -81v-268h-235v553h-76z" />
    <glyph glyph-name="Itilde" unicode="&#x128;" horiz-adv-x="332" 
d="M-33 758v5c0 126 39 188 122 188c64 0 94 -40 112 -40c13 0 19 8 19 32v5h145v-5c0 -125 -38 -187 -121 -187c-65 0 -94 40 -113 40c-12 0 -18 -7 -18 -33v-5h-146zM45 0v701h242v-701h-242z" />
    <glyph glyph-name="itilde" unicode="&#x129;" horiz-adv-x="335" 
d="M-31 604v5c0 126 39 188 122 188c64 0 94 -40 112 -40c13 0 19 8 19 32v5h145v-5c0 -125 -38 -187 -121 -187c-65 0 -94 40 -113 40c-12 0 -18 -7 -18 -33v-5h-146zM50 0v547h235v-547h-235z" />
    <glyph glyph-name="Imacron" unicode="&#x12a;" horiz-adv-x="332" 
d="M11 768v158h310v-158h-310zM45 0v701h242v-701h-242z" />
    <glyph glyph-name="imacron" unicode="&#x12b;" horiz-adv-x="335" 
d="M13 614v158h310v-158h-310zM50 0v547h235v-547h-235z" />
    <glyph glyph-name="Iogonek" unicode="&#x12e;" horiz-adv-x="332" 
d="M45 0v701h242v-701h-53c-22 -34 -36 -61 -36 -74c0 -7 4 -10 9 -10c10 0 22 9 33 28l3 6l62 -72l-2 -3c-29 -52 -73 -79 -124 -79c-43 0 -101 20 -101 93c0 40 17 77 39 111h-72z" />
    <glyph glyph-name="iogonek" unicode="&#x12f;" horiz-adv-x="311" 
d="M37 698c0 70 49 119 119 119s119 -49 119 -119s-49 -119 -119 -119s-119 49 -119 119zM38 0v547h235v-547h-58c-22 -34 -36 -61 -36 -74c0 -7 4 -10 9 -10c10 0 22 9 33 28l3 6l62 -72l-2 -3c-29 -52 -73 -79 -124 -79c-43 0 -101 20 -101 93c0 40 17 77 39 111h-60z" />
    <glyph glyph-name="Idotaccent" unicode="&#x130;" horiz-adv-x="332" 
d="M45 0v701h242v-701h-242zM47 852c0 70 49 119 119 119s119 -49 119 -119s-49 -119 -119 -119s-119 49 -119 119z" />
    <glyph glyph-name="dotlessi" unicode="&#x131;" horiz-adv-x="335" 
d="M50 0v547h235v-547h-235z" />
    <glyph glyph-name="IJ" unicode="&#x132;" horiz-adv-x="901" 
d="M45 0v701h242v-701h-242zM318 117l110 158l5 -4c54 -54 109 -78 142 -78c29 0 48 15 48 52v263h-238v193h481v-462c0 -158 -106 -249 -269 -249c-114 0 -205 45 -277 124z" />
    <glyph glyph-name="ij" unicode="&#x133;" horiz-adv-x="683" 
d="M49 698c0 70 49 119 119 119s119 -49 119 -119s-49 -119 -119 -119s-119 49 -119 119zM50 0v547h235v-547h-235zM240 -167l53 164l5 -2c19 -9 36 -14 53 -14c25 -1 39 12 39 40v526h235v-559c0 -118 -88 -192 -222 -191c-61 0 -115 13 -159 35zM379 698
c0 70 54 119 128 119c75 0 128 -49 128 -119s-53 -119 -128 -119c-74 0 -128 49 -128 119z" />
    <glyph glyph-name="Jcircumflex" unicode="&#x134;" horiz-adv-x="569" 
d="M-14 117l110 158l5 -4c54 -54 109 -78 142 -78c29 0 48 15 48 52v263h-238v193h481v-462c0 -158 -106 -249 -269 -249c-114 0 -205 45 -277 124zM76 751l128 172h174l128 -172h-163l-52 78l-52 -78h-163z" />
    <glyph glyph-name="jcircumflex" unicode="&#x135;" horiz-adv-x="338" 
d="M-95 -167l53 164l5 -2c19 -9 36 -14 53 -14c25 -1 39 12 39 40v526h235v-559c0 -118 -88 -192 -222 -191c-61 0 -115 13 -159 35zM-51 597l128 172h174l128 -172h-163l-52 78l-52 -78h-163z" />
    <glyph glyph-name="Kcommaaccent" unicode="&#x136;" horiz-adv-x="773" 
d="M45 0v701h242v-235l202 235h280l-255 -283l268 -418h-289l-144 238l-62 -70v-168h-242zM257 -340l53 130c-26 19 -38 49 -38 80c0 63 45 107 108 107c56 0 107 -37 107 -106c0 -32 -12 -59 -28 -83l-88 -128h-114z" />
    <glyph glyph-name="kcedilla" unicode="&#x137;" horiz-adv-x="662" 
d="M16 -210l45 101l5 -6c9 -11 24 -18 37 -18c21 0 33 11 33 28s-14 29 -38 29c-8 0 -23 -2 -36 -5l-10 -2l43 83h-40v742h235v-329l120 134h268l-205 -213l199 -334h-279l-82 168l-21 -21v-147h-62l-23 -43c39 -16 64 -49 64 -86c0 -72 -58 -118 -146 -118
c-31 0 -72 13 -104 35z" />
    <glyph glyph-name="kgreenlandic" unicode="&#x138;" horiz-adv-x="655" 
d="M50 0v547h235v-132l118 132h268l-205 -213l199 -334h-279l-82 168l-19 -19v-149h-235z" />
    <glyph glyph-name="Lacute" unicode="&#x139;" horiz-adv-x="584" 
d="M45 0v701h242v-498h292v-203h-534zM45 735l114 200l202 -64l-145 -136h-171z" />
    <glyph glyph-name="lacute" unicode="&#x13a;" horiz-adv-x="345" 
d="M55 0v742h235v-742h-235zM59 776l114 200l202 -64l-145 -136h-171z" />
    <glyph glyph-name="Lcommaaccent" unicode="&#x13b;" horiz-adv-x="584" 
d="M45 0v701h242v-498h292v-203h-534zM176 -340l53 130c-26 19 -38 49 -38 80c0 63 45 107 108 107c56 0 107 -37 107 -106c0 -32 -12 -59 -28 -83l-88 -128h-114z" />
    <glyph glyph-name="lcommaaccent" unicode="&#x13c;" horiz-adv-x="345" 
d="M55 0v742h235v-742h-235zM57 -340l53 130c-26 19 -38 49 -38 80c0 63 45 107 108 107c56 0 107 -37 107 -106c0 -32 -12 -59 -28 -83l-88 -128h-114z" />
    <glyph glyph-name="Lcaron" unicode="&#x13d;" horiz-adv-x="584" 
d="M45 0v701h242v-498h292v-203h-534zM340 357l53 130c-26 19 -38 49 -38 80c0 63 45 107 108 107c56 0 107 -37 107 -106c0 -32 -12 -59 -28 -83l-88 -128h-114z" />
    <glyph glyph-name="lcaron" unicode="&#x13e;" horiz-adv-x="485" 
d="M55 0v742h235v-384l51 124c-26 19 -38 49 -38 80c0 63 45 107 108 107c56 0 107 -37 107 -106c0 -32 -12 -58 -28 -81l-88 -126h-112v-356h-235z" />
    <glyph glyph-name="Ldot" unicode="&#x13f;" horiz-adv-x="584" 
d="M45 0v701h242v-498h292v-203h-534zM322 497c0 63 44 107 107 107c64 0 108 -44 108 -107c0 -64 -44 -108 -108 -108c-63 0 -107 44 -107 108z" />
    <glyph glyph-name="ldot" unicode="&#x140;" horiz-adv-x="447" 
d="M55 0v742h235v-375c18 35 53 55 96 55c63 0 107 -44 107 -108c0 -63 -44 -107 -107 -107c-44 0 -78 21 -96 55v-262h-235z" />
    <glyph glyph-name="Lslash" unicode="&#x141;" horiz-adv-x="606" 
d="M-36 414l103 30v257h242v-187l128 37l41 -142l-169 -48v-158h292v-203h-534v290l-62 -17z" />
    <glyph glyph-name="lslash" unicode="&#x142;" horiz-adv-x="373" 
d="M-51 427l130 37v278h235v-214l69 20l41 -142l-110 -31v-375h-235v310l-89 -25z" />
    <glyph glyph-name="Nacute" unicode="&#x143;" horiz-adv-x="781" 
d="M45 0v701h201l270 -350v350h220v-701h-201l-269 348v-348h-221zM277 735l114 200l202 -64l-145 -136h-171z" />
    <glyph glyph-name="nacute" unicode="&#x144;" horiz-adv-x="682" 
d="M50 0v547h235v-67c39 50 93 77 161 77c118 0 201 -83 201 -209v-348h-235v281c0 43 -24 68 -60 68c-41 0 -67 -31 -67 -81v-268h-235zM246 581l114 200l202 -64l-145 -136h-171z" />
    <glyph glyph-name="Ncommaaccent" unicode="&#x145;" horiz-adv-x="781" 
d="M45 0v701h201l270 -350v350h220v-701h-201l-269 348v-348h-221zM275 -340l53 130c-26 19 -38 49 -38 80c0 63 45 107 108 107c56 0 107 -37 107 -106c0 -32 -12 -59 -28 -83l-88 -128h-114z" />
    <glyph glyph-name="ncommaaccent" unicode="&#x146;" horiz-adv-x="682" 
d="M50 0v547h235v-67c39 50 93 77 161 77c118 0 201 -83 201 -209v-348h-235v281c0 43 -24 68 -60 68c-41 0 -67 -31 -67 -81v-268h-235zM231 -340l53 130c-26 19 -38 49 -38 80c0 63 45 107 108 107c56 0 107 -37 107 -106c0 -32 -12 -59 -28 -83l-88 -128h-114z" />
    <glyph glyph-name="Ncaron" unicode="&#x147;" horiz-adv-x="781" 
d="M45 0v701h201l270 -350v350h220v-701h-201l-269 348v-348h-221zM150 923h178l57 -86l57 86h178l-140 -188h-190z" />
    <glyph glyph-name="ncaron" unicode="&#x148;" horiz-adv-x="682" 
d="M50 0v547h235v-67c39 50 93 77 161 77c118 0 201 -83 201 -209v-348h-235v281c0 43 -24 68 -60 68c-41 0 -67 -31 -67 -81v-268h-235zM119 769h178l57 -86l57 86h178l-140 -188h-190z" />
    <glyph glyph-name="Omacron" unicode="&#x14c;" horiz-adv-x="800" 
d="M10 351c0 208 165 357 390 357s390 -150 390 -357c0 -208 -165 -361 -390 -361s-390 152 -390 361zM235 768v158h310v-158h-310zM258 350c0 -91 68 -157 145 -157s139 66 139 157s-62 155 -139 155c-78 0 -145 -64 -145 -155z" />
    <glyph glyph-name="omacron" unicode="&#x14d;" horiz-adv-x="648" 
d="M10 274c0 171 124 281 314 281s314 -110 314 -281s-124 -282 -314 -282s-314 111 -314 282zM169 614v158h310v-158h-310zM247 271c0 -59 31 -96 77 -96s77 37 77 96s-31 96 -77 96s-77 -37 -77 -96z" />
    <glyph glyph-name="Ohungarumlaut" unicode="&#x150;" horiz-adv-x="800" 
d="M10 351c0 208 165 357 390 357s390 -150 390 -357c0 -208 -165 -361 -390 -361s-390 152 -390 361zM182 735l92 200l173 -56l-94 -144h-171zM258 350c0 -91 68 -157 145 -157s139 66 139 157s-62 155 -139 155c-78 0 -145 -64 -145 -155zM403 735l92 200l173 -56
l-94 -144h-171z" />
    <glyph glyph-name="ohungarumlaut" unicode="&#x151;" horiz-adv-x="648" 
d="M10 274c0 171 124 281 314 281s314 -110 314 -281s-124 -282 -314 -282s-314 111 -314 282zM116 581l92 200l173 -56l-94 -144h-171zM247 271c0 -59 31 -96 77 -96s77 37 77 96s-31 96 -77 96s-77 -37 -77 -96zM337 581l92 200l173 -56l-94 -144h-171z" />
    <glyph glyph-name="OE" unicode="&#x152;" horiz-adv-x="1127" 
d="M10 349c0 202 164 352 389 352h686v-186h-361v-71h328v-186h-328v-72h370v-186h-695c-223 0 -389 146 -389 349zM258 353c0 -93 59 -160 141 -160l83 1v320h-83c-82 0 -141 -67 -141 -161z" />
    <glyph glyph-name="oe" unicode="&#x153;" horiz-adv-x="999" 
d="M10 274c0 171 124 281 314 281c81 0 145 -25 189 -70c42 45 101 70 177 70c8 0 16 -1 24 -1c181 -10 286 -137 274 -328v-4h-358c17 -36 46 -54 86 -54c38 0 76 17 110 48l3 3l124 -122l-3 -3c-60 -65 -146 -102 -254 -102c-81 0 -143 26 -184 69
c-45 -44 -107 -69 -188 -69c-190 0 -314 111 -314 282zM247 271c0 -59 31 -96 77 -96s77 37 77 96s-31 96 -77 96s-77 -37 -77 -96zM624 327h129c1 40 -26 68 -61 68s-59 -28 -68 -68z" />
    <glyph glyph-name="Racute" unicode="&#x154;" horiz-adv-x="725" 
d="M45 0v701h344c192 0 304 -91 304 -252c0 -100 -38 -176 -109 -221l140 -228h-274l-84 182h-79v-182h-242zM258 735l114 200l202 -64l-145 -136h-171zM287 358h102c47 0 74 28 74 80c0 50 -27 77 -74 77h-102v-157z" />
    <glyph glyph-name="racute" unicode="&#x155;" horiz-adv-x="457" 
d="M50 0v547h235v-69c39 51 95 79 162 79h5v-210l-6 1c-15 2 -28 3 -41 3c-75 0 -120 -33 -120 -90v-261h-235zM131 581l114 200l202 -64l-145 -136h-171z" />
    <glyph glyph-name="Rcommaaccent" unicode="&#x156;" horiz-adv-x="725" 
d="M45 0v701h344c192 0 304 -91 304 -252c0 -100 -38 -176 -109 -221l140 -228h-274l-84 182h-79v-182h-242zM243 -340l53 130c-26 19 -38 49 -38 80c0 63 45 107 108 107c56 0 107 -37 107 -106c0 -32 -12 -59 -28 -83l-88 -128h-114zM287 358h102c47 0 74 28 74 80
c0 50 -27 77 -74 77h-102v-157z" />
    <glyph glyph-name="rcommaaccent" unicode="&#x157;" horiz-adv-x="457" 
d="M45 -340l53 130c-26 19 -38 49 -38 80c0 63 45 107 108 107c56 0 107 -37 107 -106c0 -32 -12 -59 -28 -83l-88 -128h-114zM50 0v547h235v-69c39 51 95 79 162 79h5v-210l-6 1c-15 2 -28 3 -41 3c-75 0 -120 -33 -120 -90v-261h-235z" />
    <glyph glyph-name="Rcaron" unicode="&#x158;" horiz-adv-x="725" 
d="M45 0v701h344c192 0 304 -91 304 -252c0 -100 -38 -176 -109 -221l140 -228h-274l-84 182h-79v-182h-242zM131 923h178l57 -86l57 86h178l-140 -188h-190zM287 358h102c47 0 74 28 74 80c0 50 -27 77 -74 77h-102v-157z" />
    <glyph glyph-name="rcaron" unicode="&#x159;" horiz-adv-x="457" 
d="M4 769h178l57 -86l57 86h178l-140 -188h-190zM50 0v547h235v-69c39 51 95 79 162 79h5v-210l-6 1c-15 2 -28 3 -41 3c-75 0 -120 -33 -120 -90v-261h-235z" />
    <glyph glyph-name="Sacute" unicode="&#x15a;" horiz-adv-x="664" 
d="M2 109l90 183l5 -4c71 -59 195 -108 264 -108c34 0 51 10 51 30c0 80 -363 26 -363 272c0 141 122 229 305 229c112 0 228 -33 308 -84l3 -2l-88 -185l-4 3c-71 39 -180 81 -239 81c-25 0 -38 -8 -38 -24c0 -77 363 -27 363 -281c0 -157 -141 -226 -300 -226
c-123 0 -260 41 -354 113zM245 735l114 200l202 -64l-145 -136h-171z" />
    <glyph glyph-name="sacute" unicode="&#x15b;" horiz-adv-x="552" 
d="M6 71l72 149l5 -3c72 -45 139 -67 199 -67c21 0 29 6 29 11c0 37 -278 22 -278 207c0 116 98 189 246 189c88 0 173 -24 256 -70l5 -2l-79 -148l-4 3c-81 40 -142 59 -183 59c-19 0 -26 -7 -26 -13c0 -40 284 -26 284 -210c0 -114 -101 -186 -253 -186
c-102 0 -193 26 -270 79zM175 581l114 200l202 -64l-145 -136h-171z" />
    <glyph glyph-name="Scedilla" unicode="&#x15e;" horiz-adv-x="664" 
d="M2 107l90 181l5 -4c71 -58 195 -107 264 -107c34 0 51 11 51 31c0 80 -363 26 -363 273c0 142 122 230 305 230c112 0 228 -33 308 -84l3 -2l-88 -185l-4 3c-71 39 -180 81 -239 81c-25 0 -38 -8 -38 -24c0 -77 363 -27 363 -281c0 -133 -103 -204 -230 -222l-22 -40
c39 -16 64 -49 64 -86c0 -72 -58 -118 -146 -118c-31 0 -72 13 -104 35l-3 2l45 101l5 -6c9 -11 24 -18 37 -18c21 0 33 11 33 28s-14 29 -38 29c-8 0 -23 -2 -36 -5l-10 -2l41 80c-106 11 -212 49 -290 108z" />
    <glyph glyph-name="scedilla" unicode="&#x15f;" horiz-adv-x="552" 
d="M6 70l72 146l5 -3c72 -44 139 -66 199 -66c21 0 29 6 29 11c0 37 -278 22 -278 208c0 116 98 191 246 191c88 0 173 -24 256 -70l5 -2l-79 -148l-4 3c-81 40 -142 59 -183 59c-19 0 -26 -7 -26 -13c0 -40 284 -25 284 -209c0 -92 -67 -157 -173 -179l-22 -41
c39 -16 64 -49 64 -86c0 -72 -58 -118 -146 -118c-31 0 -72 13 -104 35l-3 2l45 101l5 -6c9 -11 24 -18 37 -18c21 0 33 11 33 28s-14 29 -38 29c-8 0 -23 -2 -36 -5l-10 -2l39 76c-81 8 -151 33 -214 75z" />
    <glyph glyph-name="Scaron" unicode="&#x160;" horiz-adv-x="664" 
d="M2 109l90 183l5 -4c71 -59 195 -108 264 -108c34 0 51 10 51 30c0 80 -363 26 -363 272c0 141 122 229 305 229c112 0 228 -33 308 -84l3 -2l-88 -185l-4 3c-71 39 -180 81 -239 81c-25 0 -38 -8 -38 -24c0 -77 363 -27 363 -281c0 -157 -141 -226 -300 -226
c-123 0 -260 41 -354 113zM118 923h178l57 -86l57 86h178l-140 -188h-190z" />
    <glyph glyph-name="scaron" unicode="&#x161;" horiz-adv-x="552" 
d="M6 71l72 149l5 -3c72 -45 139 -67 199 -67c21 0 29 6 29 11c0 37 -278 22 -278 207c0 116 98 189 246 189c88 0 173 -24 256 -70l5 -2l-79 -148l-4 3c-81 40 -142 59 -183 59c-19 0 -26 -7 -26 -13c0 -40 284 -26 284 -210c0 -114 -101 -186 -253 -186
c-102 0 -193 26 -270 79zM48 769h178l57 -86l57 86h178l-140 -188h-190z" />
    <glyph glyph-name="Tcedilla" unicode="&#x162;" horiz-adv-x="641" 
d="M0 508v193h641v-193h-200v-508h-47l-23 -43c39 -16 64 -49 64 -86c0 -72 -58 -118 -146 -118c-31 0 -72 13 -104 35l-3 2l45 101l5 -6c9 -11 24 -18 37 -18c21 0 33 11 33 28s-14 29 -38 29c-8 0 -23 -2 -36 -5l-10 -2l43 83h-62v508h-199z" />
    <glyph glyph-name="tcedilla" unicode="&#x163;" horiz-adv-x="460" 
d="M3 369v150h75v151h234v-151h128v-150h-128v-157c0 -26 15 -42 39 -41c12 0 33 6 54 14l6 2l40 -161l-4 -2c-23 -13 -57 -24 -92 -29l-21 -38c39 -16 64 -49 64 -86c0 -72 -58 -118 -146 -118c-31 0 -72 13 -104 35l-3 2l45 101l5 -6c9 -11 24 -18 37 -18
c21 0 33 11 33 28s-14 29 -38 29c-8 0 -23 -2 -36 -5l-10 -2l42 81c-90 21 -145 87 -145 180v191h-75z" />
    <glyph glyph-name="Tcaron" unicode="&#x164;" horiz-adv-x="641" 
d="M0 508v193h641v-193h-200v-508h-242v508h-199zM96 923h178l57 -86l57 86h178l-140 -188h-190z" />
    <glyph glyph-name="tcaron" unicode="&#x165;" horiz-adv-x="470" 
d="M3 369v150h75v151h234v-150h128v-149h-128v-157c0 -26 15 -41 39 -40c12 0 33 6 54 14l6 2l40 -163l-3 -2c-37 -22 -100 -35 -159 -35c-127 -1 -211 73 -211 188v191h-75zM326 562l53 130c-26 19 -38 49 -38 80c0 63 45 107 108 107c56 0 107 -37 107 -106
c0 -32 -12 -59 -28 -83l-88 -128h-114z" />
    <glyph glyph-name="Umacron" unicode="&#x16a;" horiz-adv-x="753" 
d="M35 298v403h242v-401c0 -65 48 -107 103 -107c54 0 96 41 96 107v401h242v-403c0 -186 -134 -308 -339 -308c-206 0 -344 122 -344 308zM222 768v158h310v-158h-310z" />
    <glyph glyph-name="umacron" unicode="&#x16b;" horiz-adv-x="672" 
d="M35 199v348h235v-281c0 -43 22 -68 55 -68c37 0 62 31 62 81v268h235v-547h-235v65c-38 -49 -90 -75 -156 -75c-115 0 -196 83 -196 209zM175 614v158h310v-158h-310z" />
    <glyph glyph-name="Uring" unicode="&#x16e;" horiz-adv-x="753" 
d="M35 298v403h242v-401c0 -65 48 -107 103 -107c54 0 96 41 96 107v401h242v-403c0 -186 -134 -308 -339 -308c-206 0 -344 122 -344 308zM248 852c0 72 57 129 129 129s129 -57 129 -129s-57 -129 -129 -129s-129 57 -129 129zM343 852c0 -19 15 -34 34 -34s34 15 34 34
s-15 34 -34 34s-34 -15 -34 -34z" />
    <glyph glyph-name="uring" unicode="&#x16f;" horiz-adv-x="672" 
d="M35 199v348h235v-281c0 -43 22 -68 55 -68c37 0 62 31 62 81v268h235v-547h-235v65c-38 -49 -90 -75 -156 -75c-115 0 -196 83 -196 209zM201 698c0 72 57 129 129 129s129 -57 129 -129s-57 -129 -129 -129s-129 57 -129 129zM296 698c0 -19 15 -34 34 -34s34 15 34 34
s-15 34 -34 34s-34 -15 -34 -34z" />
    <glyph glyph-name="Uhungarumlaut" unicode="&#x170;" horiz-adv-x="753" 
d="M35 298v403h242v-401c0 -65 48 -107 103 -107c54 0 96 41 96 107v401h242v-403c0 -186 -134 -308 -339 -308c-206 0 -344 122 -344 308zM169 735l92 200l173 -56l-94 -144h-171zM390 735l92 200l173 -56l-94 -144h-171z" />
    <glyph glyph-name="uhungarumlaut" unicode="&#x171;" horiz-adv-x="672" 
d="M35 199v348h235v-281c0 -43 22 -68 55 -68c37 0 62 31 62 81v268h235v-547h-235v65c-38 -49 -90 -75 -156 -75c-115 0 -196 83 -196 209zM122 581l92 200l173 -56l-94 -144h-171zM343 581l92 200l173 -56l-94 -144h-171z" />
    <glyph glyph-name="Uogonek" unicode="&#x172;" horiz-adv-x="753" 
d="M35 298v403h242v-401c0 -65 48 -107 103 -107c54 0 96 41 96 107v401h242v-404c0 -137 -73 -238 -191 -283c-28 -39 -46 -72 -46 -88c0 -7 4 -10 9 -10c10 0 22 9 33 28l3 6l62 -72l-2 -3c-29 -52 -73 -79 -124 -79c-43 0 -101 20 -101 93c0 36 15 71 33 102l-15 -1
c-206 0 -344 122 -344 308z" />
    <glyph glyph-name="uogonek" unicode="&#x173;" horiz-adv-x="670" 
d="M35 199v348h235v-281c0 -43 24 -68 60 -68c41 0 67 31 67 81v268h235v-547h-60c-22 -34 -36 -61 -36 -74c0 -7 4 -10 9 -10c10 0 22 9 33 28l3 6l62 -72l-2 -3c-29 -52 -73 -79 -124 -79c-43 0 -101 20 -101 93c0 40 17 77 39 111h-58v67c-39 -50 -93 -77 -161 -77
c-118 0 -201 83 -201 209z" />
    <glyph glyph-name="Wcircumflex" unicode="&#x174;" horiz-adv-x="1121" 
d="M-12 701h259l102 -443l100 442l234 1l102 -443l100 443h248l-232 -701h-247l-93 402l-96 -402h-247zM291 751l128 172h174l128 -172h-163l-52 78l-52 -78h-163z" />
    <glyph glyph-name="wcircumflex" unicode="&#x175;" horiz-adv-x="977" 
d="M-17 547h239l83 -311l80 311h216l83 -312l82 312h228l-204 -547h-227l-74 274l-77 -274h-228zM274 597l128 172h174l128 -172h-163l-52 78l-52 -78h-163z" />
    <glyph glyph-name="Ycircumflex" unicode="&#x176;" horiz-adv-x="719" 
d="M-18 701h242l138 -264l133 264h242l-254 -482v-219h-242v214zM145 751l128 172h174l128 -172h-163l-52 78l-52 -78h-163z" />
    <glyph glyph-name="ycircumflex" unicode="&#x177;" horiz-adv-x="624" 
d="M-27 -136l100 157l4 -4c23 -21 44 -31 70 -31c25 0 40 8 50 25l6 11l-229 525h243l104 -300l85 300h235l-227 -582c-47 -116 -126 -169 -245 -169c-73 0 -132 20 -192 65zM97 597l128 172h174l128 -172h-163l-52 78l-52 -78h-163z" />
    <glyph glyph-name="Ydieresis" unicode="&#x178;" horiz-adv-x="719" 
d="M-18 701h242l138 -264l133 264h242l-254 -482v-219h-242v214zM160 847c0 57 39 97 96 97s96 -40 96 -97c0 -56 -39 -96 -96 -96s-96 40 -96 96zM368 847c0 57 39 97 96 97s96 -40 96 -97c0 -56 -39 -96 -96 -96s-96 40 -96 96z" />
    <glyph glyph-name="Zacute" unicode="&#x179;" horiz-adv-x="683" 
d="M15 0v149l321 364h-309v188h634v-150l-321 -366h328v-185h-653zM248 735l114 200l202 -64l-145 -136h-171z" />
    <glyph glyph-name="zacute" unicode="&#x17a;" horiz-adv-x="568" 
d="M20 0v134l222 235h-212v178h512v-134l-222 -235h232v-178h-532zM170 581l114 200l202 -64l-145 -136h-171z" />
    <glyph glyph-name="Zdotaccent" unicode="&#x17b;" horiz-adv-x="683" 
d="M15 0v149l321 364h-309v188h634v-150l-321 -366h328v-185h-653zM243 852c0 70 49 119 119 119s119 -49 119 -119s-49 -119 -119 -119s-119 49 -119 119z" />
    <glyph glyph-name="zdotaccent" unicode="&#x17c;" horiz-adv-x="568" 
d="M20 0v134l222 235h-212v178h512v-134l-222 -235h232v-178h-532zM165 698c0 70 49 119 119 119s119 -49 119 -119s-49 -119 -119 -119s-119 49 -119 119z" />
    <glyph glyph-name="Zcaron" unicode="&#x17d;" horiz-adv-x="683" 
d="M15 0v149l321 364h-309v188h634v-150l-321 -366h328v-185h-653zM121 923h178l57 -86l57 86h178l-140 -188h-190z" />
    <glyph glyph-name="zcaron" unicode="&#x17e;" horiz-adv-x="568" 
d="M20 0v134l222 235h-212v178h512v-134l-222 -235h232v-178h-532zM43 769h178l57 -86l57 86h178l-140 -188h-190z" />
    <glyph glyph-name="florin" unicode="&#x192;" horiz-adv-x="444" 
d="M-113 -162l58 164l5 -4c14 -11 34 -18 49 -18c23 -1 39 14 43 41l37 301h-75l19 150h76l11 90c14 117 111 191 244 190c61 0 127 -15 168 -40l3 -2l-78 -164l-5 4c-15 11 -35 18 -50 18c-30 1 -49 -15 -53 -41l-7 -58h106l-19 -150h-106l-41 -333
c-14 -117 -111 -191 -245 -190c-49 0 -105 15 -137 40z" />
    <glyph glyph-name="Scommaaccent" unicode="&#x218;" horiz-adv-x="664" 
d="M2 109l90 183l5 -4c71 -59 195 -108 264 -108c34 0 51 10 51 30c0 80 -363 26 -363 272c0 141 122 229 305 229c112 0 228 -33 308 -84l3 -2l-88 -185l-4 3c-71 39 -180 81 -239 81c-25 0 -38 -8 -38 -24c0 -77 363 -27 363 -281c0 -157 -141 -226 -300 -226
c-123 0 -260 41 -354 113zM229 -340l53 130c-26 19 -38 49 -38 80c0 63 45 107 108 107c56 0 107 -37 107 -106c0 -32 -12 -59 -28 -83l-88 -128h-114z" />
    <glyph glyph-name="scommaaccent" unicode="&#x219;" horiz-adv-x="552" 
d="M6 71l72 149l5 -3c72 -45 139 -67 199 -67c21 0 29 6 29 11c0 37 -278 22 -278 207c0 116 98 189 246 189c88 0 173 -24 256 -70l5 -2l-79 -148l-4 3c-81 40 -142 59 -183 59c-19 0 -26 -7 -26 -13c0 -40 284 -26 284 -210c0 -114 -101 -186 -253 -186
c-102 0 -193 26 -270 79zM159 -340l53 130c-26 19 -38 49 -38 80c0 63 45 107 108 107c56 0 107 -37 107 -106c0 -32 -12 -59 -28 -83l-88 -128h-114z" />
    <glyph glyph-name="Tcommaaccent" unicode="&#x21a;" horiz-adv-x="641" 
d="M0 508v193h641v-193h-200v-508h-242v508h-199zM193 -340l53 130c-26 19 -38 49 -38 80c0 63 45 107 108 107c56 0 107 -37 107 -106c0 -32 -12 -59 -28 -83l-88 -128h-114z" />
    <glyph glyph-name="tcommaaccent" unicode="&#x21b;" horiz-adv-x="460" 
d="M3 369v150h75v151h234v-150h128v-149h-128v-157c0 -26 15 -41 39 -40c12 0 33 6 54 14l6 2l40 -163l-3 -2c-37 -22 -100 -35 -159 -35c-127 -1 -211 73 -211 188v191h-75zM156 -340l53 130c-26 19 -38 49 -38 80c0 63 45 107 108 107c56 0 107 -37 107 -106
c0 -32 -12 -59 -28 -83l-88 -128h-114z" />
    <glyph glyph-name="dotlessj" unicode="&#x237;" horiz-adv-x="338" 
d="M-95 -167l53 164l5 -2c19 -9 36 -14 53 -14c25 -1 39 12 39 40v526h235v-559c0 -118 -88 -192 -222 -191c-61 0 -115 13 -159 35z" />
    <glyph glyph-name="circumflex" unicode="&#x2c6;" horiz-adv-x="350" 
d="M-40 597l128 172h174l128 -172h-163l-52 78l-52 -78h-163z" />
    <glyph glyph-name="caron" unicode="&#x2c7;" horiz-adv-x="350" 
d="M-60 769h178l57 -86l57 86h178l-140 -188h-190z" />
    <glyph glyph-name="firsttonechinese" unicode="&#x2c9;" horiz-adv-x="350" 
d="M20 614v158h310v-158h-310z" />
    <glyph glyph-name="breve" unicode="&#x2d8;" horiz-adv-x="350" 
d="M-14 764v5h145v-5c3 -22 20 -35 44 -35s41 13 44 35v5h145v-5c-5 -102 -80 -169 -189 -169s-184 67 -189 169z" />
    <glyph glyph-name="dotaccent" unicode="&#x2d9;" horiz-adv-x="350" 
d="M56 698c0 70 49 119 119 119s119 -49 119 -119s-49 -119 -119 -119s-119 49 -119 119z" />
    <glyph glyph-name="ring" unicode="&#x2da;" horiz-adv-x="350" 
d="M46 703c0 69 57 124 129 124s129 -55 129 -124s-57 -124 -129 -124s-129 55 -129 124zM141 703c0 -16 15 -29 34 -29s34 13 34 29s-15 29 -34 29s-34 -13 -34 -29z" />
    <glyph glyph-name="ogonek" unicode="&#x2db;" horiz-adv-x="350" 
d="M64 -115c0 50 30 98 61 137l2 2h117l-6 -8c-31 -39 -54 -75 -54 -91c0 -7 4 -9 9 -9c10 0 22 9 33 28l3 6l62 -72l-2 -3c-29 -52 -73 -79 -124 -79c-43 0 -101 19 -101 89z" />
    <glyph glyph-name="tilde" unicode="&#x2dc;" horiz-adv-x="350" 
d="M-24 604v5c0 126 39 188 122 188c64 0 94 -40 112 -40c13 0 19 8 19 32v5h145v-5c0 -125 -38 -187 -121 -187c-65 0 -94 40 -113 40c-12 0 -18 -7 -18 -33v-5h-146z" />
    <glyph glyph-name="hungarumlaut" unicode="&#x2dd;" horiz-adv-x="350" 
d="M-68 581l92 200l173 -56l-94 -144h-171zM153 581l92 200l173 -56l-94 -144h-171z" />
    <glyph glyph-name="commaaccent" unicode="&#x326;" horiz-adv-x="0" 
d="M11 -340l53 130c-26 19 -38 49 -38 80c0 63 45 107 108 107c56 0 107 -37 107 -106c0 -32 -12 -59 -28 -83l-88 -128h-114z" />
    <glyph glyph-name="Delta" unicode="&#x394;" horiz-adv-x="799" 
d="M-18 0l301 701h244l289 -701h-834zM295 171h202l-99 284z" />
    <glyph glyph-name="pi" unicode="&#x3c0;" horiz-adv-x="733" 
d="M-27 383c-1 95 80 164 191 164h560l1 -163h-106v-384h-195v381h-27l-40 -381h-196l40 381h-7c-23 0 -38 -15 -37 -36c0 -14 8 -39 18 -60l2 -5l-164 -55l-2 4c-22 47 -38 107 -38 154z" />
    <glyph glyph-name="Wgrave" unicode="&#x1e80;" horiz-adv-x="1121" 
d="M-12 701h259l102 -443l100 442l234 1l102 -443l100 443h248l-232 -701h-247l-93 402l-96 -402h-247zM311 871l202 64l114 -200h-171z" />
    <glyph glyph-name="wgrave" unicode="&#x1e81;" horiz-adv-x="977" 
d="M-17 547h239l83 -311l80 311h216l83 -312l82 312h228l-204 -547h-227l-74 274l-77 -274h-228zM294 717l202 64l114 -200h-171z" />
    <glyph glyph-name="Wacute" unicode="&#x1e82;" horiz-adv-x="1121" 
d="M-12 701h259l102 -443l100 442l234 1l102 -443l100 443h248l-232 -701h-247l-93 402l-96 -402h-247zM392 735l114 200l202 -64l-145 -136h-171z" />
    <glyph glyph-name="wacute" unicode="&#x1e83;" horiz-adv-x="977" 
d="M-17 547h239l83 -311l80 311h216l83 -312l82 312h228l-204 -547h-227l-74 274l-77 -274h-228zM375 581l114 200l202 -64l-145 -136h-171z" />
    <glyph glyph-name="Wdieresis" unicode="&#x1e84;" horiz-adv-x="1121" 
d="M-12 701h259l102 -443l100 442l234 1l102 -443l100 443h248l-232 -701h-247l-93 402l-96 -402h-247zM306 847c0 57 39 97 96 97s96 -40 96 -97c0 -56 -39 -96 -96 -96s-96 40 -96 96zM514 847c0 57 39 97 96 97s96 -40 96 -97c0 -56 -39 -96 -96 -96s-96 40 -96 96z" />
    <glyph glyph-name="wdieresis" unicode="&#x1e85;" horiz-adv-x="977" 
d="M-17 547h239l83 -311l80 311h216l83 -312l82 312h228l-204 -547h-227l-74 274l-77 -274h-228zM289 693c0 57 39 97 96 97s96 -40 96 -97c0 -56 -39 -96 -96 -96s-96 40 -96 96zM497 693c0 57 39 97 96 97s96 -40 96 -97c0 -56 -39 -96 -96 -96s-96 40 -96 96z" />
    <glyph glyph-name="Ygrave" unicode="&#x1ef2;" horiz-adv-x="719" 
d="M-18 701h242l138 -264l133 264h242l-254 -482v-219h-242v214zM165 871l202 64l114 -200h-171z" />
    <glyph glyph-name="ygrave" unicode="&#x1ef3;" horiz-adv-x="624" 
d="M-27 -136l100 157l4 -4c23 -21 44 -31 70 -31c25 0 40 8 50 25l6 11l-229 525h243l104 -300l85 300h235l-227 -582c-47 -116 -126 -169 -245 -169c-73 0 -132 20 -192 65zM117 717l202 64l114 -200h-171z" />
    <glyph glyph-name="endash" unicode="&#x2013;" horiz-adv-x="410" 
d="M-5 204v150h420v-150h-420z" />
    <glyph glyph-name="emdash" unicode="&#x2014;" horiz-adv-x="610" 
d="M-5 204v150h620v-150h-620z" />
    <glyph glyph-name="quoteleft" unicode="&#x2018;" horiz-adv-x="265" 
d="M13 500c0 31 12 57 28 79l88 122h114l-53 -124c26 -18 38 -47 38 -76c0 -69 -45 -117 -108 -117c-56 0 -107 40 -107 116z" />
    <glyph glyph-name="quoteright" unicode="&#x2019;" horiz-adv-x="265" 
d="M11 384l53 140c-26 18 -38 47 -38 76c0 59 45 101 108 101c56 0 107 -35 107 -100c0 -31 -12 -57 -28 -79l-88 -138h-114z" />
    <glyph glyph-name="quotesinglbase" unicode="&#x201a;" horiz-adv-x="265" 
d="M11 -120l53 130c-26 19 -38 49 -38 80c0 63 45 107 108 107c56 0 107 -37 107 -106c0 -32 -12 -59 -28 -83l-88 -128h-114z" />
    <glyph glyph-name="quotedblleft" unicode="&#x201c;" horiz-adv-x="483" 
d="M13 500c0 31 12 57 28 79l88 122h114l-53 -124c26 -18 38 -47 38 -76c0 -69 -45 -117 -108 -117c-56 0 -107 40 -107 116zM231 500c0 31 12 57 28 79l88 122h114l-53 -124c26 -18 38 -47 38 -76c0 -69 -45 -117 -108 -117c-56 0 -107 40 -107 116z" />
    <glyph glyph-name="quotedblright" unicode="&#x201d;" horiz-adv-x="483" 
d="M11 384l53 140c-26 18 -38 47 -38 76c0 59 45 101 108 101c56 0 107 -35 107 -100c0 -31 -12 -57 -28 -79l-88 -138h-114zM229 384l53 140c-26 18 -38 47 -38 76c0 59 45 101 108 101c56 0 107 -35 107 -100c0 -31 -12 -57 -28 -79l-88 -138h-114z" />
    <glyph glyph-name="quotedblbase" unicode="&#x201e;" horiz-adv-x="483" 
d="M11 -120l53 130c-26 19 -38 49 -38 80c0 63 45 107 108 107c56 0 107 -37 107 -106c0 -32 -12 -59 -28 -83l-88 -128h-114zM229 -110l53 120c-26 19 -38 49 -38 80c0 63 45 107 108 107c56 0 107 -37 107 -106c0 -32 -12 -59 -28 -83l-88 -118h-114z" />
    <glyph glyph-name="dagger" unicode="&#x2020;" horiz-adv-x="608" 
d="M15 322v186h168v191h235v-191h175v-186h-175v-512h-235v512h-168z" />
    <glyph glyph-name="daggerdbl" unicode="&#x2021;" horiz-adv-x="608" 
d="M15 12v186h168v124h-168v186h168v191h235v-191h175v-186h-175v-124h175v-186h-175v-202h-235v202h-168z" />
    <glyph glyph-name="bullet" unicode="&#x2022;" horiz-adv-x="368" 
d="M25 284c0 93 65 158 158 158c95 0 160 -65 160 -158c0 -95 -65 -160 -160 -160c-93 0 -158 65 -158 160z" />
    <glyph glyph-name="ellipsis" unicode="&#x2026;" horiz-adv-x="745" 
d="M25 90c0 63 44 107 107 107c64 0 108 -44 108 -107c0 -64 -44 -108 -108 -108c-63 0 -107 44 -107 108zM265 90c0 63 44 107 107 107c64 0 108 -44 108 -107c0 -64 -44 -108 -108 -108c-63 0 -107 44 -107 108zM505 90c0 63 44 107 107 107c64 0 108 -44 108 -107
c0 -64 -44 -108 -108 -108c-63 0 -107 44 -107 108z" />
    <glyph glyph-name="perthousand" unicode="&#x2030;" horiz-adv-x="1527" 
d="M20 488c0 131 83 217 210 217s209 -86 209 -217c0 -132 -82 -218 -209 -218s-210 86 -210 218zM171 488c0 -57 24 -89 59 -89s59 32 59 89c0 56 -24 89 -59 89s-59 -33 -59 -89zM176 -10l494 711h222l-494 -711h-222zM629 213c0 131 83 217 210 217s209 -86 209 -217
c0 -132 -82 -218 -209 -218s-210 86 -210 218zM780 213c0 -57 24 -89 59 -89s59 32 59 89c0 56 -24 89 -59 89s-59 -33 -59 -89zM1088 213c0 131 83 217 210 217s209 -86 209 -217c0 -132 -82 -218 -209 -218s-210 86 -210 218zM1239 213c0 -57 24 -89 59 -89s59 32 59 89
c0 56 -24 89 -59 89s-59 -33 -59 -89z" />
    <glyph glyph-name="guilsinglleft" unicode="&#x2039;" horiz-adv-x="285" 
d="M-23 273l127 193h191l-108 -193l108 -195h-191z" />
    <glyph glyph-name="guilsinglright" unicode="&#x203a;" horiz-adv-x="285" 
d="M-10 78l108 193l-108 195h191l127 -195l-127 -193h-191z" />
    <glyph glyph-name="fraction" unicode="&#x2044;" horiz-adv-x="150" 
d="M-283 -10l494 711h222l-494 -711h-222z" />
    <glyph glyph-name="Euro" unicode="&#x20ac;" horiz-adv-x="774" 
d="M15 244v92h82l-1 16v20h-81v91h97c48 147 189 245 369 245c108 0 227 -51 300 -130l3 -3l-141 -167l-4 5c-41 56 -103 92 -155 92c-43 0 -79 -15 -104 -42h197v-91h-233v-17c0 -6 1 -14 1 -19h232v-92h-195c26 -27 60 -41 102 -41c48 0 110 30 155 78l4 4l141 -150l-3 -3
c-79 -86 -199 -142 -309 -142c-179 0 -317 103 -361 254h-96z" />
    <glyph glyph-name="literSign" unicode="&#x2113;" horiz-adv-x="478" 
d="M-13 197l86 57l36 212c30 170 115 245 215 245c87 0 135 -58 135 -149c0 -163 -158 -279 -234 -341c-1 -10 -2 -17 -2 -24c0 -41 18 -54 45 -54c43 0 79 39 106 72l4 5l67 -84l-2 -3c-63 -102 -142 -140 -223 -140c-93 0 -144 50 -159 133l-42 -23zM254 384
c33 43 79 109 79 175c0 22 -5 33 -15 33c-15 0 -34 -24 -48 -111z" />
    <glyph glyph-name="trademark" unicode="&#x2122;" horiz-adv-x="921" 
d="M-16 563v138h374v-138h-102v-293h-171v293h-101zM378 270v431h182l76 -174l77 174h182v-431h-154v178l-45 -128h-119l-45 128v-178h-154z" />
    <glyph glyph-name="Omega" unicode="&#x2126;" horiz-adv-x="833" 
d="M0 0v190h138c-51 52 -87 134 -87 202c0 186 155 321 365 321c211 0 366 -135 366 -322c0 -67 -36 -152 -86 -204h137v-187h-375v170l2 2c62 46 107 130 107 197c0 85 -64 145 -151 145c-86 0 -150 -60 -150 -145c0 -67 45 -151 107 -197l2 -2v-170h-375z" />
    <glyph glyph-name="estimated" unicode="&#x212e;" horiz-adv-x="809" 
d="M65 319c0 168 153 302 340 302s340 -134 340 -302v-12h-548v-163c0 -6 3 -11 7 -16c50 -54 122 -87 202 -87c84 0 161 38 211 97l2 2h62l-7 -8c-61 -71 -161 -119 -269 -119c-187 0 -340 137 -340 306zM197 333h416v162c0 6 -4 12 -8 16c-51 50 -121 82 -199 82
c-80 0 -150 -33 -201 -85c-4 -4 -8 -10 -8 -16v-159z" />
    <glyph glyph-name="oneeighth" unicode="&#x215b;" horiz-adv-x="950" 
d="M-1 572v129h242v-431h-166v302h-76zM73 -10l494 711h222l-494 -711h-222zM539 121c0 44 30 85 72 107c-29 23 -48 56 -48 86c0 72 71 118 174 118c105 0 176 -48 176 -123c0 -29 -17 -60 -40 -81c40 -23 64 -63 64 -104c0 -80 -80 -131 -199 -131s-199 51 -199 128z
M697 136c0 -17 11 -25 41 -25s42 9 42 25c0 17 -12 25 -42 25s-41 -8 -41 -25zM704 300c0 -14 9 -22 34 -22s34 8 34 22c0 17 -9 25 -34 25s-34 -8 -34 -25z" />
    <glyph glyph-name="threeeighths" unicode="&#x215c;" horiz-adv-x="1008" 
d="M-7 330l67 124l5 -6c32 -40 67 -59 103 -59c25 0 34 7 34 24s-9 26 -34 26h-87v83l70 59h-134v118h328v-90l-86 -74l10 -2c54 -13 96 -56 96 -121c0 -85 -73 -144 -184 -144c-69 0 -141 23 -185 59zM131 -10l494 711h222l-494 -711h-222zM597 121c0 44 30 85 72 107
c-29 23 -48 56 -48 86c0 72 71 118 174 118c105 0 176 -48 176 -123c0 -29 -17 -60 -40 -81c40 -23 64 -63 64 -104c0 -80 -80 -131 -199 -131s-199 51 -199 128zM755 136c0 -17 11 -25 41 -25s42 9 42 25c0 17 -12 25 -42 25s-41 -8 -41 -25zM762 300c0 -14 9 -22 34 -22
s34 8 34 22c0 17 -9 25 -34 25s-34 -8 -34 -25z" />
    <glyph glyph-name="fiveeighths" unicode="&#x215d;" horiz-adv-x="1020" 
d="M-3 328l60 108l-17 1v264h324v-125h-171v-24c6 -1 8 -1 9 -1c111 0 183 -49 183 -129c0 -93 -78 -154 -195 -154c-65 0 -139 23 -189 57zM78 438c29 -34 58 -49 93 -49c26 0 35 7 35 25c0 15 -9 23 -36 23zM143 -10l494 711h222l-494 -711h-222zM609 121
c0 44 30 85 72 107c-29 23 -48 56 -48 86c0 72 71 118 174 118c105 0 176 -48 176 -123c0 -29 -17 -60 -40 -81c40 -23 64 -63 64 -104c0 -80 -80 -131 -199 -131s-199 51 -199 128zM767 136c0 -17 11 -25 41 -25s42 9 42 25c0 17 -12 25 -42 25s-41 -8 -41 -25zM774 300
c0 -14 9 -22 34 -22s34 8 34 22c0 17 -9 25 -34 25s-34 -8 -34 -25z" />
    <glyph glyph-name="seveneighths" unicode="&#x215e;" horiz-adv-x="995" 
d="M17 518v183h381v-106l-151 -325h-176l141 306h-48v-58h-147zM118 -10l494 711h222l-494 -711h-222zM584 121c0 44 30 85 72 107c-29 23 -48 56 -48 86c0 72 71 118 174 118c105 0 176 -48 176 -123c0 -29 -17 -60 -40 -81c40 -23 64 -63 64 -104
c0 -80 -80 -131 -199 -131s-199 51 -199 128zM742 136c0 -17 11 -25 41 -25s42 9 42 25c0 17 -12 25 -42 25s-41 -8 -41 -25zM749 300c0 -14 9 -22 34 -22s34 8 34 22c0 17 -9 25 -34 25s-34 -8 -34 -25z" />
    <glyph glyph-name="partialdiff" unicode="&#x2202;" horiz-adv-x="648" 
d="M15 239c0 138 96 234 242 234c58 0 101 -19 130 -45c-4 64 -44 95 -121 95c-58 0 -107 -18 -147 -55l-4 -4l-94 172l4 2c65 45 164 73 255 73c205 0 338 -142 338 -358c0 -220 -122 -363 -323 -363c-167 0 -280 97 -280 249zM240 240c0 -39 20 -56 63 -56
c44 0 64 18 64 56s-21 55 -65 55c-43 0 -62 -18 -62 -55z" />
    <glyph glyph-name="product" unicode="&#x220f;" horiz-adv-x="734" 
d="M45 -204v946h644v-946h-235v760h-174v-760h-235z" />
    <glyph glyph-name="summation" unicode="&#x2211;" horiz-adv-x="621" 
d="M18 25l235 274l-222 279v167h577v-203h-294l196 -243l-195 -237h303v-200h-600v163z" />
    <glyph glyph-name="minus" unicode="&#x2212;" horiz-adv-x="520" 
d="M25 254v150h470v-150h-470z" />
    <glyph glyph-name="divisionslash" unicode="&#x2215;" horiz-adv-x="373" 
d="M-57 -114l332 920h199l-332 -920h-199z" />
    <glyph glyph-name="bulletoperator" unicode="&#x2219;" horiz-adv-x="368" 
d="M25 284c0 93 65 158 158 158c95 0 160 -65 160 -158c0 -95 -65 -160 -160 -160c-93 0 -158 65 -158 160z" />
    <glyph glyph-name="radical" unicode="&#x221a;" horiz-adv-x="725" 
d="M-11 237v186h292l87 -340l164 659h225l-266 -908h-248l-124 403h-130z" />
    <glyph glyph-name="infinity" unicode="&#x221e;" horiz-adv-x="835" 
d="M10 296c0 134 92 233 218 233c91 0 146 -51 187 -108c42 59 96 108 191 108c127 0 219 -99 219 -232c0 -134 -92 -233 -219 -233c-91 0 -146 51 -187 108c-42 -59 -96 -108 -191 -108c-126 0 -218 99 -218 232zM170 296c0 -43 25 -72 58 -72c50 0 82 31 111 74
c-30 43 -63 71 -111 71c-32 0 -58 -30 -58 -73zM495 295c31 -43 63 -71 111 -71c34 0 59 30 59 73s-25 72 -59 72c-50 0 -82 -31 -111 -74z" />
    <glyph glyph-name="integral" unicode="&#x222b;" horiz-adv-x="434" 
d="M-35 -115l26 152l6 -2c31 -15 50 -21 70 -21c60 0 83 25 83 99c0 79 -30 401 -30 474c0 195 63 273 225 273c39 0 70 -7 111 -25l3 -2l-21 -152l-6 2c-25 9 -41 12 -59 12c-57 0 -78 -22 -78 -89c0 -68 28 -399 28 -479c0 -196 -64 -275 -227 -275c-56 0 -94 8 -129 31z
" />
    <glyph glyph-name="approxequal" unicode="&#x2248;" horiz-adv-x="520" 
d="M42 100v5c0 138 42 206 133 206c71 0 103 -44 124 -44c14 0 21 9 21 36v5h158v-5c0 -138 -41 -206 -132 -206c-71 0 -103 44 -124 44c-14 0 -21 -9 -21 -36v-5h-159zM42 335v5c0 138 42 206 133 206c71 0 103 -39 124 -39c14 0 21 8 21 32v4h158v-5
c0 -134 -41 -201 -132 -201c-71 0 -103 39 -124 39c-14 0 -21 -9 -21 -36v-5h-159z" />
    <glyph glyph-name="notequal" unicode="&#x2260;" horiz-adv-x="520" 
d="M25 144v150h131l22 70h-153v150h200l41 126h179l-41 -129h91v-147h-138l-22 -70h160v-150h-207l-43 -136h-179l43 136h-84z" />
    <glyph glyph-name="lessequal" unicode="&#x2264;" horiz-adv-x="520" 
d="M25 -16v150h470v-150h-470zM25 318v175l470 180v-159l-306 -108l306 -108v-159z" />
    <glyph glyph-name="greaterequal" unicode="&#x2265;" horiz-adv-x="520" 
d="M25 -16v150h470v-150h-470zM25 148v159l306 108l-306 108v160l470 -180v-175z" />
    <glyph glyph-name="lozenge" unicode="&#x25ca;" horiz-adv-x="482" 
d="M9 335l233 345l231 -345l-233 -348zM164 330l77 -116l77 116l-77 114z" />
    <glyph glyph-name="zero.dnom" horiz-adv-x="459" 
d="M20 213c0 131 83 217 210 217s209 -86 209 -217c0 -132 -82 -218 -209 -218s-210 86 -210 218zM171 213c0 -57 24 -89 59 -89s59 32 59 89c0 56 -24 89 -59 89s-59 -33 -59 -89z" />
    <glyph glyph-name="one.dnom" horiz-adv-x="286" 
d="M-1 297v129h242v-431h-166v302h-76z" />
    <glyph glyph-name="two.dnom" horiz-adv-x="394" 
d="M2 362l4 2c66 42 133 68 205 68c93 0 167 -47 167 -120c0 -53 -39 -100 -89 -147l-48 -45h141v-125h-359v100l153 150c15 16 28 35 28 45c0 7 -4 11 -18 11c-30 0 -73 -20 -116 -53l-5 -4z" />
    <glyph glyph-name="three.dnom" horiz-adv-x="374" 
d="M-7 55l67 124l5 -6c32 -40 67 -59 103 -59c25 0 34 7 34 24s-9 26 -34 26h-87v83l70 59h-134v118h328v-90l-86 -74l10 -2c54 -13 96 -56 96 -121c0 -85 -73 -144 -184 -144c-69 0 -141 23 -185 59z" />
    <glyph glyph-name="four.dnom" horiz-adv-x="432" 
d="M14 72v104l128 250h160l-79 -161h154v-76h55v-117h-55v-77h-155v77h-208zM186 189h36v74z" />
    <glyph glyph-name="five.dnom" horiz-adv-x="396" 
d="M-3 53l60 108l-17 1v264h324v-125h-171v-24c6 -1 8 -1 9 -1c111 0 183 -49 183 -129c0 -93 -78 -154 -195 -154c-65 0 -139 23 -189 57zM78 163c29 -34 58 -49 93 -49c26 0 35 7 35 25c0 15 -9 23 -36 23z" />
    <glyph glyph-name="six.dnom" horiz-adv-x="419" 
d="M20 209c0 135 89 223 225 223c56 0 119 -15 158 -39l4 -2l-65 -115l-4 4c-22 18 -50 27 -84 27c-47 0 -69 -14 -74 -39c19 11 46 19 81 19c89 0 148 -59 148 -142c0 -93 -73 -152 -181 -152c-129 0 -208 86 -208 216zM192 146c0 -18 8 -23 31 -23s31 6 31 23
c0 15 -8 23 -31 23c-22 0 -31 -6 -31 -23z" />
    <glyph glyph-name="seven.dnom" horiz-adv-x="401" 
d="M17 243v183h381v-106l-151 -325h-176l141 306h-48v-58h-147z" />
    <glyph glyph-name="eight.dnom" horiz-adv-x="424" 
d="M13 121c0 44 30 85 72 107c-29 23 -48 56 -48 86c0 72 71 118 174 118c105 0 176 -48 176 -123c0 -29 -17 -60 -40 -81c40 -23 64 -63 64 -104c0 -80 -80 -131 -199 -131s-199 51 -199 128zM171 136c0 -17 11 -25 41 -25s42 9 42 25c0 17 -12 25 -42 25s-41 -8 -41 -25z
M178 300c0 -14 9 -22 34 -22s34 8 34 22c0 17 -9 25 -34 25s-34 -8 -34 -25z" />
    <glyph glyph-name="nine.dnom" horiz-adv-x="419" 
d="M10 278c0 94 73 154 181 154c129 0 208 -86 208 -216c0 -135 -89 -223 -225 -223c-57 0 -119 15 -158 40l-4 2l65 114l4 -4c22 -17 50 -26 84 -26c47 0 69 11 74 34c-20 -11 -46 -20 -81 -20c-89 0 -148 59 -148 145zM165 277c0 -17 8 -25 31 -25s31 6 31 25
c0 21 -8 26 -31 26s-31 -7 -31 -26z" />
    <glyph glyph-name="zero.numr" horiz-adv-x="459" 
d="M20 496c0 126 83 209 210 209s209 -83 209 -209c0 -133 -82 -221 -209 -221s-210 88 -210 221zM171 496c0 -58 24 -92 59 -92s59 34 59 92c0 51 -24 81 -59 81s-59 -30 -59 -81z" />
    <glyph glyph-name="one.numr" horiz-adv-x="286" 
d="M-1 572v129h242v-421h-166v292h-76z" />
    <glyph glyph-name="two.numr" horiz-adv-x="394" 
d="M2 640l4 3c66 40 133 64 205 64c93 0 167 -45 167 -115c0 -51 -39 -97 -89 -142l-48 -45h141v-125h-359v100l153 150c15 13 28 29 28 37c0 6 -4 9 -18 9c-30 0 -73 -16 -116 -43l-5 -4z" />
    <glyph glyph-name="three.numr" horiz-adv-x="374" 
d="M-7 335l67 124l5 -6c32 -40 67 -59 103 -59c25 0 34 7 34 25s-9 26 -34 26h-87v85l70 51h-134v118h328v-86l-86 -70l10 -2c54 -13 96 -57 96 -122c0 -86 -73 -146 -184 -146c-69 0 -141 23 -185 59z" />
    <glyph glyph-name="four.numr" horiz-adv-x="432" 
d="M14 357v104l128 240h160l-79 -151h154v-76h55v-117h-55v-77h-155v77h-208zM186 474h36v74z" />
    <glyph glyph-name="five.numr" horiz-adv-x="396" 
d="M-3 333l60 110l-17 1v257h324v-125h-171v-23c6 -1 8 0 9 0c111 0 183 -48 183 -124c0 -95 -78 -156 -195 -156c-65 0 -139 23 -189 58zM78 443c29 -34 58 -49 93 -49c26 0 35 7 35 25c0 15 -9 23 -36 23z" />
    <glyph glyph-name="six.numr" horiz-adv-x="419" 
d="M20 491c0 131 89 216 225 216c56 0 119 -15 158 -39l4 -2l-65 -115l-4 4c-22 18 -50 27 -84 27c-47 0 -69 -10 -74 -29c19 11 46 19 81 19c89 0 148 -59 148 -144c0 -94 -73 -155 -181 -155c-129 0 -208 87 -208 218zM192 428c0 -20 8 -25 31 -25s31 7 31 26
c0 17 -8 25 -31 25c-22 0 -31 -7 -31 -26z" />
    <glyph glyph-name="seven.numr" horiz-adv-x="401" 
d="M17 518v183h381v-104l-151 -317h-176l141 296h-48v-58h-147z" />
    <glyph glyph-name="eight.numr" horiz-adv-x="424" 
d="M13 402c0 44 30 87 72 109c-29 22 -48 54 -48 83c0 70 71 113 174 113c105 0 176 -46 176 -118c0 -28 -17 -58 -40 -78c40 -23 64 -64 64 -106c0 -81 -80 -132 -199 -132s-199 51 -199 129zM171 418c0 -18 11 -27 41 -27s42 9 42 27s-12 28 -42 28s-41 -10 -41 -28z
M178 580c0 -11 9 -17 34 -17s34 6 34 17c0 13 -9 20 -34 20s-34 -7 -34 -20z" />
    <glyph glyph-name="nine.numr" horiz-adv-x="419" 
d="M10 558c0 91 73 149 181 149c129 0 208 -83 208 -208c0 -137 -89 -226 -225 -226c-57 0 -119 15 -158 40l-4 2l65 114l4 -4c22 -17 50 -26 84 -26c47 0 69 13 74 39c-20 -11 -46 -20 -81 -20c-89 0 -148 57 -148 140zM165 557c0 -14 8 -20 31 -20s31 5 31 20
c0 17 -8 21 -31 21s-31 -6 -31 -21z" />
    </font>
</defs>
</svg>
