<?xml version="1.0" encoding="UTF-8" standalone="no"?>
<svg
   xmlns:dc="http://purl.org/dc/elements/1.1/"
   xmlns:cc="http://creativecommons.org/ns#"
   xmlns:rdf="http://www.w3.org/1999/02/22-rdf-syntax-ns#"
   xmlns:svg="http://www.w3.org/2000/svg"
   xmlns="http://www.w3.org/2000/svg"
   version="1.1"
   id="svg2"
   viewBox="0 0 74.000003 72.372848"
   height="20.425226mm"
   width="20.884445mm">
  <defs
     id="defs4" />
  <metadata
     id="metadata7">
    <rdf:RDF>
      <cc:Work
         rdf:about="">
        <dc:format>image/svg+xml</dc:format>
        <dc:type
           rdf:resource="http://purl.org/dc/dcmitype/StillImage" />
        <dc:title></dc:title>
      </cc:Work>
    </rdf:RDF>
  </metadata>
  <g
     transform="translate(-402.17341,-330.54543)"
     style="display:inline"
     id="layer2">
    <path
       id="path4229"
       d="m 403.37341,402.84733 c -1.09267,-0.0173 -1.2,-4.74714 -1.2,-11.16214 0,-8.75311 0.29573,-10.46678 2.43677,-14.12019 2.32235,-3.96278 6.72265,-7.62665 12.88455,-10.7282 2.81785,-1.41835 2.82154,-1.43356 3,-12.35478 0.20291,-12.41781 1.37236,-15.45439 8.0215,-20.82867 3.45786,-2.79487 8.90005,-3.06867 10.65718,-3.10602 1.50312,-0.0319 7.19932,0.31115 10.65718,3.10602 6.64914,5.37428 7.81858,8.41086 8.0215,20.82867 0.17846,10.92122 0.18215,10.93643 3,12.35478 6.1619,3.10155 10.5622,6.76542 12.88454,10.7282 2.14105,3.65341 2.43678,5.36708 2.43678,14.12019 0,6.415 -0.10745,11.13903 -1.2,11.16214 -4.46956,0.0946 -65.63044,0.0946 -71.6,0 z m 63.8,-13.72327 c 0,-6.99234 -2.37606,-10.58975 -8.95345,-13.55574 -4.03072,-1.8176 -4.10534,-1.81439 -6.32634,0.27213 -2.95549,2.77654 -8.89272,5.20688 -12.72021,5.20688 -3.82749,0 -9.76472,-2.43034 -12.72021,-5.20688 -2.22101,-2.08652 -2.29562,-2.08973 -6.32634,-0.27213 -6.57739,2.96599 -8.95345,6.5634 -8.95345,13.55574 l 0,5.92327 28,0 28,0 z m -23.97998,-18.58708 c 4.31028,-2.22894 4.97998,-4.31345 4.97998,-15.50083 0,-9.87698 -1.07317,-10.89208 -2.92308,-13.06574 -3.39175,-3.98533 -9.89178,-2.91379 -12.15384,0 -1.57266,2.02576 -2.92308,3.18876 -2.92308,13.06574 0,11.06465 0.78313,13.02107 4.77514,15.45238 2.7966,1.70325 5.60629,1.39771 8.24488,0.0485 z"
       style="fill:#424242" />
  </g>
</svg>
