<?xml version="1.0" encoding="UTF-8" standalone="no"?>
<svg
   xmlns:dc="http://purl.org/dc/elements/1.1/"
   xmlns:cc="http://creativecommons.org/ns#"
   xmlns:rdf="http://www.w3.org/1999/02/22-rdf-syntax-ns#"
   xmlns:svg="http://www.w3.org/2000/svg"
   xmlns="http://www.w3.org/2000/svg"
   version="1.1"
   id="svg2"
   viewBox="0 0 14.88133 14.7893"
   height="4.1738691mm"
   width="4.199842mm">
  <defs
     id="defs4" />
  <metadata
     id="metadata7">
    <rdf:RDF>
      <cc:Work
         rdf:about="">
        <dc:format>image/svg+xml</dc:format>
        <dc:type
           rdf:resource="http://purl.org/dc/dcmitype/StillImage" />
        <dc:title></dc:title>
      </cc:Work>
    </rdf:RDF>
  </metadata>
  <g
     transform="translate(-302.15213,-317.84571)"
     style="display:inline"
     id="layer2">
    <g
       id="g4207">
      <path
         style="fill:#d0d0d0"
         d="m 302.15881,332.20172 0.0145,-5.20133 c 0,0 1.53033,0.74532 1.53033,1.84532 l 0,2 6,0 0.0188,1.7893 -7.57031,-0.0182 z"
         id="path4189" />
      <path
         style="fill:#d0d0d0"
         d="m 307.3586,327.01697 c -2.06104,-2.27742 -2.13225,-3.56838 -0.15499,-2.80963 l 1.5,0.5756 0,-3.46861 c 0,-1.90774 0.45,-3.46862 1,-3.46862 0.55,0 1,1.56088 1,3.46862 l 0,3.46861 1.5,-0.5756 c 2.07664,-0.79688 1.88038,0.98415 -0.32874,2.98338 -2.28773,2.07037 -2.4925,2.06249 -4.51627,-0.17375 z"
         id="path4168" />
      <path
         style="display:inline;fill:#d0d0d0"
         d="m 317.02678,332.1991 -0.0145,-5.20133 c 0,0 -1.53033,0.74532 -1.53033,1.84532 l 0,2 -6,0 -0.0188,1.7893 7.57031,-0.0182 z"
         id="path4189-8" />
    </g>
  </g>
</svg>
